<?xml version="1.0" encoding="UTF-8"?>
<svg version="1.1" xmlns="http://www.w3.org/2000/svg" width="1024" height="1024">
<path d="M0 0 C0 0.66 0 1.32 0 2 C-0.56847656 2.15855469 -1.13695312 2.31710938 -1.72265625 2.48046875 C-7.37561011 4.18862342 -11.30135475 6.45204338 -16 10 C-16.66 10 -17.32 10 -18 10 C-18.37125 10.804375 -18.37125 10.804375 -18.75 11.625 C-20 14 -20 14 -21.9375 16.625 C-26.83637341 24.6413383 -28.30114498 33.36315197 -26.49609375 42.5703125 C-25.10580116 47.76603453 -23.05337814 51.99395713 -19.98828125 56.40625 C-19 58 -19 58 -19 60 C-18.46375 60.2475 -17.9275 60.495 -17.375 60.75 C-15 62 -15 62 -12.0625 64 C-4.77621041 68.7583932 3.35796759 69.76425937 11.94140625 68.6015625 C20.71671377 66.47951089 28.7160735 62.48556254 34 55 C34.66 55 35.32 55 36 55 C36.37125 53.9790625 36.37125 53.9790625 36.75 52.9375 C38.24197908 49.43134917 40.06835511 46.28379632 42 43 C42.66 43 43.32 43 44 43 C43.401883 58.46132444 37.38798379 71.6700332 26.0078125 82.29296875 C18.58328588 88.60526084 10.17292957 91.17086395 1 94 C0.01 94.33 -0.98 94.66 -2 95 C-1.5164132 110.30802365 -1.05745328 122.46827724 10.71875 133.62890625 C12 135 12 135 12 137 C12.99 137.33 13.98 137.66 15 138 C15 138.66 15 139.32 15 140 C15.8353125 140.3403125 15.8353125 140.3403125 16.6875 140.6875 C19.64502675 142.36609627 21.61532828 144.57686584 24 147 C30.88045536 153.55601113 38.07324879 159.52282277 45.578125 165.3359375 C49.58800467 168.44303421 53.503798 171.66025003 57.41796875 174.88671875 C59.94391386 176.95409591 62.49938144 178.97900294 65.0625 181 C70.23294399 185.13144654 75.16073152 189.48645152 80 194 C80.763125 194.70898438 81.52625 195.41796875 82.3125 196.1484375 C101.63386882 214.73183738 114.62945197 240.40941799 115.35351562 267.41699219 C115.51478524 286.80599822 110.09676568 303.93184171 101 321 C101.33 320.67 101.66 320.34 102 320 C102.33 320.66 102.66 321.32 103 322 C103.66176743 321.98525131 104.32353485 321.97050262 105.00535583 321.95530701 C111.86648703 321.80338551 118.72774091 321.6585163 125.58911133 321.51782227 C128.15295219 321.46431065 130.71675563 321.40897457 133.28051758 321.35180664 C136.95646083 321.27015057 140.63248687 321.19496468 144.30859375 321.12109375 C145.46274277 321.09405869 146.61689178 321.06702362 147.80601501 321.03916931 C148.86703934 321.01907303 149.92806366 320.99897675 151.02124023 320.97827148 C152.43021828 320.94829323 152.43021828 320.94829323 153.86766052 320.91770935 C156 321 156 321 157 322 C157.08975206 324.5349286 157.11495965 327.04239416 157.09765625 329.57739258 C157.09619598 330.37090622 157.09473572 331.16441986 157.0932312 331.98197937 C157.08941557 333.71117075 157.08328898 335.44035818 157.07516479 337.16953468 C157.06244984 339.90532333 157.05589773 342.64106373 157.05102539 345.37687683 C157.037621 352.17512487 157.01346217 358.9733274 156.98962402 365.77154541 C156.96990547 371.50786263 156.95425639 377.2441627 156.94406128 382.98050499 C156.93757197 385.6771233 156.92506097 388.37367158 156.91235352 391.07026672 C156.90872048 392.72498513 156.90536881 394.37970419 156.90234375 396.03442383 C156.89717743 396.78523224 156.89201111 397.53604065 156.88668823 398.30960083 C156.88634266 401.71164221 157.0694411 404.72829866 158 408 C157.6795614 409.66919381 157.34374046 411.33544859 157 413 C156.90559794 415.74043622 156.85804443 418.44826695 156.875 421.1875 C156.87693359 421.93765381 156.87886719 422.68780762 156.88085938 423.46069336 C156.92405005 429.02809117 157.2981603 434.47301233 158 440 C157.34 440 156.68 440 156 440 C156.16265854 440.83016632 156.32531708 441.66033264 156.49290466 442.51565552 C157.041533 446.2853808 157.13307615 449.95148976 157.11352539 453.74951172 C157.11367142 454.50141281 157.11381744 455.2533139 157.1139679 456.02799988 C157.11327528 458.49525918 157.10551358 460.9624415 157.09765625 463.4296875 C157.09578975 465.14747069 157.09436694 466.86525442 157.09336853 468.58303833 C157.08956159 473.09079473 157.07974696 477.5985186 157.06866455 482.10626221 C157.05841115 486.711462 157.05386251 491.31666707 157.04882812 495.921875 C157.03812298 504.94793091 157.02106856 513.97396274 157 523 C158.04454346 522.99476318 159.08908691 522.98952637 160.1652832 522.98413086 C164.03978621 522.96603402 167.91428548 522.95455082 171.78881836 522.94506836 C173.46590808 522.94003887 175.14299342 522.93321452 176.82006836 522.92456055 C179.230317 522.91243441 181.64050768 522.90675785 184.05078125 522.90234375 C184.80087967 522.89718246 185.55097809 522.89202118 186.32380676 522.88670349 C189.48951232 522.88636215 191.97337972 522.99112657 195 524 C195.33 523.34 195.66 522.68 196 522 C197.19219354 524.38438709 197.12916022 525.87656002 197.1328125 528.53515625 C197.13410156 529.42654297 197.13539063 530.31792969 197.13671875 531.23632812 C197.13285156 532.16896484 197.12898438 533.10160156 197.125 534.0625 C197.12886719 534.99900391 197.13273437 535.93550781 197.13671875 536.90039062 C197.13478516 538.23553711 197.13478516 538.23553711 197.1328125 539.59765625 C197.13168457 540.41758057 197.13055664 541.23750488 197.12939453 542.08227539 C197 544 197 544 196 545 C193.64322146 545.09873027 191.3157599 545.13179332 188.95845699 545.12304783 C188.20935361 545.12420167 187.46025022 545.12535552 186.68844673 545.12654433 C184.14619364 545.12921807 181.60400228 545.12468265 179.06175232 545.12025452 C177.23360255 545.12069006 175.40545284 545.12156467 173.57730347 545.12284368 C168.52865773 545.12509188 163.48003299 545.12106295 158.43138993 545.11606562 C152.99645557 545.11176594 147.56152249 545.1132072 142.12658691 545.1139679 C132.70188044 545.11449344 123.27718086 545.11134349 113.85247612 545.10573006 C100.22576491 545.09761914 86.59905705 545.09500026 72.97234369 545.09374207 C50.86640762 545.0915509 28.76047506 545.08489764 6.65454102 545.07543945 C-14.8252765 545.06625975 -36.30509303 545.05917382 -57.78491211 545.05493164 C-58.44664735 545.05480011 -59.10838259 545.05466859 -59.79017042 545.05453308 C-67.09476362 545.05308377 -74.39935683 545.05169191 -81.70395005 545.05032361 C-136.80263593 545.03994899 -191.90131773 545.02225484 -247 545 C-247 538.07 -247 531.14 -247 524 C-243.40626921 522.2031346 -238.96944284 522.9660948 -235 523.0390625 C-230.5334507 523.08708991 -226.15048076 522.88363366 -221.69873047 522.49609375 C-220.62847626 522.40384521 -219.55822205 522.31159668 -218.45553589 522.21655273 C-217.24004562 522.10935913 -217.24004562 522.10935913 -216 522 C-215.9770554 484.9376399 -215.95946214 447.87528089 -215.94893467 410.81291511 C-215.94768413 406.42630212 -215.94638979 402.03968914 -215.94506836 397.65307617 C-215.94467489 396.34326477 -215.94467489 396.34326477 -215.94427348 395.00699253 C-215.93993536 380.91256762 -215.93205812 366.81814683 -215.9228472 352.72372436 C-215.91345883 338.23572456 -215.90793346 323.74772691 -215.90591151 309.2597242 C-215.904547 300.33715075 -215.90025502 291.41458897 -215.89208353 282.49201912 C-215.88675197 276.35354917 -215.8852101 270.21508515 -215.88649862 264.07661306 C-215.8871321 260.54776642 -215.88623913 257.01893999 -215.88079453 253.49009705 C-215.87110769 246.11389805 -215.89250579 238.73948506 -215.97200084 231.3636806 C-215.99067814 229.11988187 -215.99692888 226.87594554 -215.99079823 224.63207746 C-215.98442763 221.47015016 -216.02165354 218.31154658 -216.06959534 215.15003967 C-216.05811744 214.23342039 -216.04663954 213.3168011 -216.03481382 212.37240547 C-216.19399139 206.17877189 -217.84833442 203.14198902 -222.26952595 198.80820173 C-227.36612097 193.48268303 -228.78704103 186.33257919 -229.16015625 179.1796875 C-228.13273314 158.78157988 -211.15870069 142.10354622 -197 129 C-195.33953615 127.6589499 -193.67373087 126.32445481 -192 125 C-191.34 124.34 -190.68 123.68 -190 123 C-186.41535521 126.50965222 -182.84132467 130.0296804 -179.27612305 133.55908203 C-178.06566638 134.75459082 -176.85251411 135.94737741 -175.63647461 137.13720703 C-163.55387786 148.96611402 -152.10582485 161.28777188 -150.6875 178.875 C-150.95447807 186.90004669 -153.86200065 193.45689152 -158.5 199.89453125 C-158.995 200.58933594 -159.49 201.28414062 -160 202 C-160.77836967 202.96132088 -160.77836967 202.96132088 -161.57246399 203.94206238 C-163.73560216 208.57573996 -163.39257344 212.98014261 -163.34057617 218.0324707 C-163.34101425 219.14510788 -163.34145233 220.25774506 -163.34190369 221.40409851 C-163.3398153 225.07817185 -163.31648107 228.75178771 -163.29296875 232.42578125 C-163.287373 234.97454072 -163.2831028 237.52330341 -163.28010559 240.07206726 C-163.26982533 246.09270672 -163.24618618 252.1131501 -163.21605712 258.13371104 C-163.18249363 264.98977977 -163.16602223 271.84585644 -163.15097082 278.70198691 C-163.11963588 292.80143197 -163.06463173 306.90067028 -163 321 C-149.8 321 -136.6 321 -123 321 C-126.03075649 312.72992413 -126.03075649 312.72992413 -129 310 C-130.13599769 307.00509699 -131.09849311 304.06922118 -132 301 C-132.34546875 299.83855469 -132.6909375 298.67710937 -133.046875 297.48046875 C-139.93854114 273.05486141 -137.64612928 246.80862729 -125.2878418 224.45947266 C-118.54055994 212.79646923 -110.3365794 202.66951169 -101 193 C-100.38511719 192.34515625 -99.77023437 191.6903125 -99.13671875 191.015625 C-95.07071243 186.78464945 -90.59396717 183.13413406 -86.02734375 179.45703125 C-82.78994178 176.82951404 -79.61056238 174.14189394 -76.4375 171.4375 C-72.69175317 168.25052608 -68.92192233 165.11207633 -65.0625 162.0625 C-55.53626142 154.47223894 -46.40083065 146.58183309 -37.75 138 C-37.10587158 137.36505615 -36.46174316 136.7301123 -35.7980957 136.07592773 C-35.19956787 135.47337158 -34.60104004 134.87081543 -33.984375 134.25 C-33.19111816 133.45335937 -33.19111816 133.45335937 -32.38183594 132.640625 C-30.88757996 130.86652603 -29.99978873 129.08388396 -29 127 C-28.525625 126.54625 -28.05125 126.0925 -27.5625 125.625 C-22.84156805 120.71523078 -21.96348809 114.43550834 -21.68359375 107.91796875 C-21.64169922 106.98662109 -21.59980469 106.05527344 -21.55664062 105.09570312 C-21.51732422 104.13599609 -21.47800781 103.17628906 -21.4375 102.1875 C-21.39431641 101.20845703 -21.35113281 100.22941406 -21.30664062 99.22070312 C-21.2009774 96.81392973 -21.09887673 94.40706017 -21 92 C-21.58587891 91.82331787 -22.17175781 91.64663574 -22.77539062 91.46459961 C-35.02085265 87.60838408 -43.44146673 80.03088028 -50 69 C-55.90451519 55.63714984 -57.07805069 40.80651505 -52 27 C-45.55643522 13.93824809 -35.27612446 6.27547426 -22 1 C-14.53524369 -1.1224216 -7.62796675 -1.24882642 0 0 Z M-52 393 C-52 393.66 -52 394.32 -52 395 C-52.66 395 -53.32 395 -54 395 C-61.16317173 406.69569975 -66.74724689 417.94332998 -68.11621094 431.75170898 C-68.19986782 432.57722228 -68.2835247 433.40273558 -68.36971664 434.25326443 C-69.21554307 443.26375334 -69.290604 452.242107 -69.265625 461.28515625 C-69.26697718 463.04682976 -69.26892227 464.80850291 -69.27142334 466.57017517 C-69.27433549 470.21454515 -69.2701964 473.8588156 -69.26074219 477.50317383 C-69.24920423 482.17821192 -69.25602079 486.85302391 -69.26788712 491.52805424 C-69.27508971 495.14389274 -69.2728277 498.75967682 -69.26763153 502.37551689 C-69.26629801 504.10154688 -69.26793233 505.82758181 -69.27259064 507.55360603 C-69.27764508 509.94611063 -69.26996788 512.33823669 -69.25878906 514.73071289 C-69.26283752 515.44173157 -69.26688599 516.15275024 -69.27105713 516.88531494 C-69.34383493 520.88879935 -69.34383493 520.88879935 -67 524 C-65.03953018 524.30018223 -65.03953018 524.30018223 -62.76223755 524.24723816 C-61.42893402 524.25352989 -61.42893402 524.25352989 -60.06869507 524.25994873 C-59.09099152 524.25432922 -58.11328796 524.24870972 -57.10595703 524.24291992 C-56.07821167 524.24481827 -55.05046631 524.24671661 -53.99157715 524.24867249 C-50.58024566 524.25238947 -47.1691252 524.24166148 -43.7578125 524.23046875 C-41.39370753 524.22927718 -39.02960208 524.22882374 -36.66549683 524.2290802 C-31.70388843 524.22751365 -26.74235201 524.21921197 -21.78076172 524.20581055 C-15.41613889 524.18883903 -9.05159539 524.18499561 -2.68695259 524.18575573 C2.19773111 524.18548392 7.08239743 524.18000067 11.96707535 524.17275429 C14.31386305 524.16956839 16.66065273 524.1676004 19.00744247 524.16686058 C22.28738517 524.16469516 25.56724339 524.15594585 28.84716797 524.14526367 C29.82082306 524.14571686 30.79447815 524.14617004 31.79763794 524.14663696 C33.13940094 524.14023949 33.13940094 524.14023949 34.50827026 524.13371277 C35.2836659 524.13203692 36.05906155 524.13036108 36.85795403 524.12863445 C39.01939052 523.99883556 40.92219429 523.594171 43 523 C43.06994561 511.68948352 43.12303526 500.37901968 43.15543652 489.06832981 C43.17099853 483.81459905 43.19206083 478.5610178 43.22631836 473.30737305 C43.25925322 468.22393796 43.27692388 463.1406454 43.28463173 458.05711174 C43.29011469 456.13133442 43.3008186 454.20556364 43.31719017 452.2798481 C43.52466014 426.83115705 39.31646951 406.67235898 21.5 387.44140625 C13.52077792 379.64919719 -1.61028216 366.78227151 -13.609375 366.515625 C-27.92047485 369.41525961 -42.9381994 382.13520548 -52 393 Z " fill="#111110" transform="translate(525,129)"/>
<path d="M0 0 C9.75322579 11.40600707 13.78316056 25.29601686 12.86328125 40.21777344 C11.33572663 53.99706735 6.12796106 64.46297346 -4 74 C-8.07344751 77.21313539 -11.85254227 79.97050845 -17 81 C-16.566875 81.77085937 -16.13375 82.54171875 -15.6875 83.3359375 C-15.130625 84.33882812 -14.57375 85.34171875 -14 86.375 C-13.443125 87.37273437 -12.88625 88.37046875 -12.3125 89.3984375 C-11 92 -11 92 -11 94 C-10.34 94.33 -9.68 94.66 -9 95 C-7.81037466 97.23283525 -6.70530935 99.46469867 -5.625 101.75 C-2.3319864 108.54150003 1.27546849 115.09724476 5.0625 121.625 C18 143.98874059 18 143.98874059 18 148 C17.01 147.67 16.02 147.34 15 147 C14.34 147.185625 13.68 147.37125 13 147.5625 C12.01 147.7790625 12.01 147.7790625 11 148 C9.515 147.01 9.515 147.01 8 146 C7.67 146.66 7.34 147.32 7 148 C5.86949219 147.83628906 4.73898437 147.67257812 3.57421875 147.50390625 C0.51206755 147.11616414 -2.45712059 146.94829232 -5.54296875 146.96484375 C-6.30673828 146.95904297 -7.07050781 146.95324219 -7.85742188 146.94726562 C-9.42265095 146.94070557 -10.98822162 146.96196466 -12.55273438 147.00976562 C-18.11621695 146.90123289 -18.11621695 146.90123289 -20.47143555 144.49951172 C-21.81207688 142.3917711 -22.9098201 140.24720056 -24 138 C-24.88808039 136.41823583 -25.78281099 134.84019005 -26.68359375 133.265625 C-27.60458428 131.59541271 -28.52248043 129.92349091 -29.4375 128.25 C-29.91614502 127.37762695 -30.39479004 126.50525391 -30.88793945 125.60644531 C-34.41591037 119.14497763 -37.80465222 112.63338021 -41 106 C-41.99 106.495 -41.99 106.495 -43 107 C-43.061875 106.195625 -43.12375 105.39125 -43.1875 104.5625 C-44.26536993 99.8364549 -46.51591419 96.12486573 -49 92 C-49.66 92 -50.32 92 -51 92 C-51.33 90.35 -51.66 88.7 -52 87 C-57.94 87 -63.88 87 -70 87 C-70.60733972 96.86338538 -71.09115564 106.65328135 -71.02734375 116.53515625 C-71.02183502 117.40191986 -71.01632629 118.26868347 -71.01065063 119.16171265 C-70.98310701 122.7089115 -70.94734402 126.25593699 -70.90405273 129.80297852 C-70.87407266 132.44287774 -70.85619259 135.08264276 -70.83984375 137.72265625 C-70.82638412 138.52768082 -70.8129245 139.33270538 -70.79905701 140.16212463 C-70.79015904 142.10921518 -70.8858937 144.05623548 -71 146 C-71.66 146.66 -72.32 147.32 -73 148 C-73.33 147.67 -73.66 147.34 -74 147 C-74.99 147 -75.98 147 -77 147 C-78.71614746 146.98852134 -80.43229308 146.97676771 -82.1484375 146.96484375 C-84.22395745 146.95553052 -86.29947834 146.94642423 -88.375 146.9375 C-89.4165625 146.92912109 -90.458125 146.92074219 -91.53125 146.91210938 C-92.53929687 146.90888672 -93.54734375 146.90566406 -94.5859375 146.90234375 C-95.5042334 146.89710693 -96.4225293 146.89187012 -97.36865234 146.88647461 C-100.00947303 147.0004087 -102.42673203 147.41204867 -105 148 C-105.80877762 143.54486906 -106.29911881 139.14078223 -106.625 134.625 C-106.72039063 133.37976563 -106.81578125 132.13453125 -106.9140625 130.8515625 C-106.98796317 127.53946882 -106.7079384 124.53545013 -106.24023438 121.26708984 C-105.73831961 116.53052432 -105.89879942 111.75719465 -105.9375 107 C-105.94201172 105.93910156 -105.94652344 104.87820313 -105.95117188 103.78515625 C-105.96286157 101.19004402 -105.97924724 98.59505291 -106 96 C-106.66 95.67 -107.32 95.34 -108 95 C-107.34 95 -106.68 95 -106 95 C-106.185625 93.9275 -106.37125 92.855 -106.5625 91.75 C-106.951202 88.41826857 -106.816644 87.062415 -106 84 C-106.30791692 82.328451 -106.64386903 80.66194453 -107 79 C-107 77 -107 75 -107 73 C-107.33 72.34 -107.66 71.68 -108 71 C-107.34 71 -106.68 71 -106 71 C-106 68.69 -106 66.38 -106 64 C-106.66 63.67 -107.32 63.34 -108 63 C-107.34 63 -106.68 63 -106 63 C-106.165 61.845 -106.33 60.69 -106.5 59.5 C-107.31817052 52.87281876 -107.09722341 46.58334047 -106 40 C-106.99 40 -107.98 40 -109 40 C-109 39.34 -109 38.68 -109 38 C-108.34 38 -107.68 38 -107 38 C-106.505 35.03 -106.505 35.03 -106 32 C-106.66 31.67 -107.32 31.34 -108 31 C-107.34 31 -106.68 31 -106 31 C-106.00523682 29.78940918 -106.01047363 28.57881836 -106.01586914 27.33154297 C-106.03401681 22.82520288 -106.04546767 18.318866 -106.05493164 13.8125 C-106.05994955 11.86490332 -106.06676534 9.91731039 -106.07543945 7.96972656 C-106.08761652 5.16470411 -106.09325383 2.35973163 -106.09765625 -0.4453125 C-106.10539818 -1.74409836 -106.10539818 -1.74409836 -106.11329651 -3.06912231 C-106.11337204 -3.88951996 -106.11344757 -4.7099176 -106.11352539 -5.55517578 C-106.115746 -6.27021271 -106.11796661 -6.98524963 -106.12025452 -7.72195435 C-105.97203639 -10.52972958 -105.50055763 -13.23553594 -105 -16 C-97.54009736 -16.20304165 -90.07991047 -16.38635197 -82.61896992 -16.54658794 C-79.1520068 -16.62162189 -75.68543412 -16.70266973 -72.21899414 -16.79907227 C-18.19771106 -18.28506008 -18.19771106 -18.28506008 0 0 Z M-71 12 C-71.93201642 27.67784758 -72.12135629 43.29649572 -72 59 C-67.70839209 59.05871491 -63.41688942 59.09383483 -59.125 59.125 C-57.92101562 59.14175781 -56.71703125 59.15851563 -55.4765625 59.17578125 C-45.48328185 59.23009256 -34.71828126 59.2390975 -27 52 C-22.05590386 45.66048986 -21.25653898 39.15310403 -21.58984375 31.2734375 C-22.3931018 24.86267327 -24.61058241 20.8906481 -29.4375 16.625 C-40.75664043 9.06521111 -58.06188267 11.79435686 -71 12 Z " fill="#171716" transform="translate(765,740)"/>
<path d="M0 0 C13.17135989 10.93650821 20.41588321 24.74484617 22.25 41.6875 C20.32253693 43.61496307 16.79084643 43.07612482 14.15234375 43.22265625 C13.44348526 43.26563339 12.73462677 43.30861053 12.00428772 43.35289001 C9.73226118 43.4896291 7.45991435 43.61988073 5.1875 43.75 C3.65036525 43.84137098 2.11325542 43.93316234 0.57617188 44.02539062 C-3.19894641 44.25097915 -6.97436442 44.4707488 -10.75 44.6875 C-11.20375 43.718125 -11.6575 42.74875 -12.125 41.75 C-13.40786221 38.61670418 -13.40786221 38.61670418 -15.75 37.6875 C-15.42 36.6975 -15.09 35.7075 -14.75 34.6875 C-18.41172136 27.87698323 -24.68983042 21.66588986 -32.08984375 19.19921875 C-41.17177676 17.45218024 -51.49801242 17.10466398 -59.609375 22.015625 C-72.02880228 31.71546966 -76.38194721 44.97585749 -78.4375 60.125 C-79.51564589 72.43383222 -79.74484918 86.18361508 -74.75 97.6875 C-74.20039588 99.33631235 -73.66656703 100.99182028 -73.20703125 102.66796875 C-70.79723657 110.91968992 -66.30831093 117.46982124 -59.20703125 122.42578125 C-51.54051495 126.36264097 -42.72162225 127.64880603 -34.34765625 125.6015625 C-25.5687014 122.51242651 -19.97892337 117.98626497 -15.75 109.6875 C-13.83113543 105.43021204 -12.22590505 101.11521514 -10.75 96.6875 C5.09 97.1825 5.09 97.1825 21.25 97.6875 C23.60896805 107.12337221 17.73628977 119.0906192 13.34375 127.3359375 C4.81274979 140.99190426 -8.92662823 151.8932264 -24.75 155.6875 C-39.93677099 158.56966092 -53.323451 157.56371905 -68.03515625 152.84375 C-70.95330797 151.93547144 -73.74461497 151.20304363 -76.75 150.6875 C-76.75 150.0275 -76.75 149.3675 -76.75 148.6875 C-78.37078303 147.41828387 -80.0493213 146.22247379 -81.75 145.0625 C-91.37798028 138.1871346 -100.77771203 129.57665189 -103.75 117.6875 C-104.41 117.3575 -105.07 117.0275 -105.75 116.6875 C-106.84933456 113.92422699 -107.82685402 111.19699327 -108.75 108.375 C-109.01039063 107.62154297 -109.27078125 106.86808594 -109.5390625 106.09179688 C-113.22138515 94.99833496 -114.1163176 84.07594033 -114.0625 72.4375 C-114.05686035 71.15987793 -114.0512207 69.88225586 -114.04541016 68.56591797 C-113.74367235 45.07518167 -106.85369061 23.48385168 -90.34765625 6.15625 C-86.44010593 2.44260819 -82.3748471 -0.55418312 -77.75 -3.3125 C-76.83605469 -3.85777344 -75.92210937 -4.40304687 -74.98046875 -4.96484375 C-52.12413804 -17.47922027 -20.86481932 -15.37220022 0 0 Z " fill="#171816" transform="translate(617.75,734.3125)"/>
<path d="M0 0 C1.86960388 -0.01441132 1.86960388 -0.01441132 3.77697754 -0.02911377 C5.15405087 -0.03396876 6.53112633 -0.03824585 7.90820312 -0.04199219 C9.32336426 -0.04774946 10.73852539 -0.05350712 12.15368652 -0.05926514 C15.1364783 -0.06980067 18.119243 -0.07562296 21.10205078 -0.07910156 C24.13179821 -0.08344944 27.16125494 -0.09718831 30.19091797 -0.12011719 C78.97753391 -0.48212163 78.97753391 -0.48212163 96.00195312 15.80566406 C99.26965021 19.3242736 101.85896197 22.96918017 104.18945312 27.16113281 C104.77339844 28.20527344 104.77339844 28.20527344 105.36914062 29.27050781 C111.55701883 41.64626422 111.11927801 55.77852234 107.56445312 68.84863281 C103.52782907 80.92935969 95.00230252 90.57441848 83.98242188 96.80957031 C70.3224854 103.41983328 55.75019711 103.22758695 40.87695312 103.72363281 C39.64783203 103.76681641 38.41871094 103.81 37.15234375 103.85449219 C34.16478827 103.95911475 31.1771717 104.06129608 28.18945312 104.16113281 C28.19389435 104.88332001 28.19833557 105.6055072 28.20291138 106.34957886 C28.24294687 113.14779304 28.2734165 119.94598965 28.29307747 126.74429131 C28.3035251 130.23957209 28.31770196 133.73475565 28.34033203 137.22998047 C28.36617265 141.24610337 28.37591778 145.26212378 28.38476562 149.27832031 C28.3950882 150.53667694 28.40541077 151.79503357 28.41604614 153.09152222 C28.41627274 154.83310104 28.41627274 154.83310104 28.41650391 156.60986328 C28.42094513 157.63578583 28.42538635 158.66170837 28.42996216 159.71871948 C28.18945312 162.16113281 28.18945312 162.16113281 26.18945312 164.16113281 C26.18945312 163.50113281 26.18945312 162.84113281 26.18945312 162.16113281 C25.35800781 162.24492188 24.5265625 162.32871094 23.66992188 162.41503906 C22.03990234 162.56779297 22.03990234 162.56779297 20.37695312 162.72363281 C19.29800781 162.82804688 18.2190625 162.93246094 17.10742188 163.04003906 C14.18945312 163.16113281 14.18945312 163.16113281 11.18945312 162.16113281 C10.85945313 162.82113281 10.52945312 163.48113281 10.18945312 164.16113281 C9.85945313 163.83113281 9.52945312 163.50113281 9.18945312 163.16113281 C5.78912659 163.10088339 2.40354783 163.14112248 -0.99609375 163.20019531 C-6.61026404 163.26127423 -6.61026404 163.26127423 -8.81054688 162.16113281 C-8.31554687 161.17113281 -8.31554687 161.17113281 -7.81054688 160.16113281 C-7.706491 158.07310246 -7.6682714 155.98169924 -7.65905762 153.89109802 C-7.65482521 153.24080991 -7.65059279 152.5905218 -7.64623213 151.92052799 C-7.6331693 149.73176577 -7.62717302 147.54304 -7.62109375 145.35424805 C-7.61315438 143.78909074 -7.60476667 142.22393564 -7.59596252 140.65878296 C-7.57788436 137.28389057 -7.56287646 133.90900313 -7.55018616 130.53408623 C-7.53000359 125.20303581 -7.50234703 119.87204055 -7.47351074 114.54103088 C-7.40824973 102.26341161 -7.35284057 89.98575149 -7.2975235 77.70808411 C-7.24672919 66.4554064 -7.19388677 55.20274871 -7.13299799 43.95012051 C-7.10457811 38.64499099 -7.08100792 33.33986817 -7.0610733 28.03470027 C-7.04772651 24.74160912 -7.03031223 21.44854881 -7.01176262 18.15548325 C-7.00397904 16.62236749 -6.99792161 15.08924191 -6.99366951 13.55611229 C-6.98766129 11.47208312 -6.97563244 9.38817533 -6.96203613 7.30418396 C-6.9568824 6.13518271 -6.95172867 4.96618147 -6.94641876 3.76175594 C-6.69629078 -1.02575847 -4.23811671 0.02627797 0 0 Z M28.18945312 28.16113281 C27.25432878 30.96650585 27.06762405 32.64278645 27.07592773 35.54077148 C27.07600327 36.42145798 27.0760788 37.30214447 27.07615662 38.20951843 C27.0813179 39.15648087 27.08647919 40.1034433 27.09179688 41.07910156 C27.09321182 42.0514827 27.09462677 43.02386383 27.09608459 44.02571106 C27.10168496 47.13338285 27.1142375 50.24098277 27.12695312 53.34863281 C27.13196808 55.45475156 27.13653099 57.56087144 27.140625 59.66699219 C27.15165451 64.83173345 27.16891938 69.99642094 27.18945312 75.16113281 C30.71288225 75.18125431 34.23629638 75.19336863 37.75976562 75.20410156 C38.75145752 75.20986206 39.74314941 75.21562256 40.76489258 75.22155762 C51.08841095 75.24512729 61.01098045 75.23333865 69.18945312 68.16113281 C73.63001507 63.25314329 74.76864984 57.62221654 75.18945312 51.16113281 C74.67217335 43.64979948 72.34534976 38.40984994 67.06445312 32.97363281 C58.83283553 27.78413476 50.02845408 27.76789366 40.56445312 27.97363281 C39.36949219 27.98716797 38.17453125 28.00070312 36.94335938 28.01464844 C34.02490512 28.04966989 31.10742965 28.09878289 28.18945312 28.16113281 Z " fill="#171716" transform="translate(249.810546875,723.8388671875)"/>
<path d="M0 0 C14.89050939 -0.02337734 29.78101736 -0.04100293 44.67154121 -0.05181217 C51.58572122 -0.05696485 58.49988982 -0.06398797 65.4140625 -0.07543945 C72.08597852 -0.08648442 78.75788022 -0.09228375 85.42980576 -0.09487724 C87.97590191 -0.09672563 90.52199742 -0.100335 93.06808853 -0.10573006 C96.63280899 -0.11298347 100.19748038 -0.11398911 103.76220703 -0.11352539 C104.81597031 -0.11712067 105.86973358 -0.12071594 106.95542908 -0.12442017 C107.93130478 -0.1230455 108.90718048 -0.12167084 109.91262817 -0.12025452 C110.75514696 -0.12117631 111.59766575 -0.1220981 112.46571541 -0.12304783 C115.33162591 0.01610153 118.16975314 0.52829219 121 1 C121 10.57 121 20.14 121 30 C106.48 30 91.96 30 77 30 C77.495 36.93 77.495 36.93 78 44 C78.08101017 48.17751782 78.12765869 52.33679302 78.11352539 56.51318359 C78.11367142 57.67590286 78.11381744 58.83862213 78.1139679 60.03657532 C78.11327937 63.82388268 78.10553736 67.61113889 78.09765625 71.3984375 C78.0957883 74.04643843 78.09431689 76.69443664 78.09336853 79.34243774 C78.0902813 85.56456554 78.08210369 91.78667542 78.07201904 98.00879538 C78.06077612 105.10209019 78.055327 112.19538594 78.05032361 119.28868747 C78.03991839 133.85913415 78.02237037 148.42956682 78 163 C76.35 163 74.7 163 73 163 C72.67 163.66 72.34 164.32 72 165 C71.34 164.67 70.68 164.34 70 164 C67.67085177 163.63858045 65.33746522 163.30300475 63 163 C62.67 163.66 62.34 164.32 62 165 C62 164.34 62 163.68 62 163 C61.3709375 163.08378906 60.741875 163.16757812 60.09375 163.25390625 C54.4685618 163.9231681 49.58766133 163.93127689 44 163 C43.67 163.66 43.34 164.32 43 165 C41.82680721 154.01677609 41.88164029 143.07458981 41.92483521 132.0429821 C41.93772958 128.71814715 41.9441464 125.39335259 41.94897461 122.0684967 C41.96032626 115.02481277 41.97960376 107.98116278 42 100.9375 C42.02362277 92.73956612 42.04397366 84.54165074 42.05593872 76.34369087 C42.06241819 73.06869602 42.0749184 69.79375924 42.08764648 66.51878357 C42.09127755 64.51895193 42.09462946 62.51911976 42.09765625 60.51928711 C42.10540573 59.15485725 42.10540573 59.15485725 42.11331177 57.76286316 C42.11341751 56.50805145 42.11341751 56.50805145 42.11352539 55.22789001 C42.115746 54.5036531 42.11796661 53.77941618 42.12025452 53.03323269 C42.06264217 50.9502681 42.06264217 50.9502681 41.43040466 48.79825687 C41.28837112 48.20483211 41.14633759 47.61140734 41 47 C41.33 46.67 41.66 46.34 42 46 C42.07319621 43.30345146 42.09242537 40.63308542 42.0625 37.9375 C42.05798828 37.17888672 42.05347656 36.42027344 42.04882812 35.63867188 C42.0370068 33.75908129 42.01907078 31.87953101 42 30 C40.73293213 30.03552979 39.46586426 30.07105957 38.16040039 30.10766602 C33.47726204 30.23764449 28.79396785 30.36094137 24.1105957 30.48217773 C22.08027305 30.53568003 20.04999786 30.59101547 18.01977539 30.64819336 C15.10833986 30.7298755 12.19679947 30.80505001 9.28515625 30.87890625 C8.3716188 30.90594131 7.45808136 30.93297638 6.51686096 30.96083069 C4.34515498 31.01273771 2.17229367 31.01189236 0 31 C-1.82595254 29.17404746 -1.130419 26.2987678 -1.1328125 23.84765625 C-1.13410156 22.59662109 -1.13539063 21.34558594 -1.13671875 20.05664062 C-1.13285156 18.73857422 -1.12898438 17.42050781 -1.125 16.0625 C-1.12886719 14.74830078 -1.13273437 13.43410156 -1.13671875 12.08007812 C-1.13542969 10.82775391 -1.13414062 9.57542969 -1.1328125 8.28515625 C-1.13168457 7.12894775 -1.13055664 5.97273926 -1.12939453 4.78149414 C-1 2 -1 2 0 0 Z " fill="#181816" transform="translate(374,723)"/>
<path d="M0 0 C0.66 0.33 1.32 0.66 2 1 C2 106.6 2 212.2 2 321 C-0.99578804 322.49789402 -3.64407419 322.00082655 -6.9765625 321.87890625 C-7.66181 321.85529526 -8.3470575 321.83168427 -9.05307007 321.80735779 C-11.24392416 321.73072143 -13.43442472 321.64669754 -15.625 321.5625 C-17.10935764 321.50927924 -18.59373259 321.45653884 -20.078125 321.40429688 C-23.71903921 321.27600963 -27.35938196 321.13774166 -31 321 C-31 327.27 -31 333.54 -31 340 C114.86 340 260.72 340 411 340 C411 340.33 411 340.66 411 341 C264.81 341 118.62 341 -32 341 C-32 334.07 -32 327.14 -32 320 C-28.40626921 318.2031346 -23.96944284 318.9660948 -20 319.0390625 C-15.5334507 319.08708991 -11.15048076 318.88363366 -6.69873047 318.49609375 C-5.62847626 318.40384521 -4.55822205 318.31159668 -3.45553589 318.21655273 C-2.24004562 318.10935913 -2.24004562 318.10935913 -1 318 C-1.00037972 317.39200959 -1.00075944 316.78401918 -1.00115067 316.15760481 C-1.02359431 280.01522993 -1.04071953 243.87285608 -1.05106533 207.73047564 C-1.05231583 203.37777151 -1.05361018 199.02506739 -1.05493164 194.67236328 C-1.05519395 193.80592384 -1.05545626 192.9394844 -1.05572652 192.04678921 C-1.0600619 178.07078845 -1.06793757 164.09479186 -1.0771528 150.11879356 C-1.0865489 135.74717056 -1.09206814 121.37554972 -1.09408849 107.00392377 C-1.09545143 98.15659718 -1.09973458 89.30928237 -1.10791647 80.46195941 C-1.11325764 74.37112393 -1.1147878 68.28029442 -1.11350138 62.18945678 C-1.11286934 58.69061735 -1.11374341 55.19179832 -1.11920547 51.69296265 C-1.14211738 34.43732863 -0.81028214 17.23749706 0 0 Z " fill="#2C2A26" transform="translate(310,333)"/>
<path d="M0 0 C10.23 0 20.46 0 31 0 C31 0.33 31 0.66 31 1 C21.43 1 11.86 1 2 1 C2 6.28 2 11.56 2 17 C146.54 17 291.08 17 440 17 C440 11.72 440 6.44 440 1 C440.66 0.67 441.32 0.34 442 0 C442 6.27 442 12.54 442 19 C296.14 19 150.28 19 0 19 C0 12.73 0 6.46 0 0 Z " fill="#020101" transform="translate(279,654)"/>
<path d="M0 0 C1.26899643 -0.00637985 2.53799286 -0.0127597 3.84544373 -0.01933289 C5.24469973 -0.02086275 6.64395624 -0.02197607 8.04321289 -0.02270508 C9.47514377 -0.0259185 10.90707433 -0.02928264 12.33900452 -0.03279114 C15.35117349 -0.03879396 18.36331375 -0.0406302 21.37548828 -0.04003906 C25.21174451 -0.03993815 29.04781269 -0.05351144 32.88402462 -0.07081127 C35.84825969 -0.08201106 38.81245074 -0.08395573 41.77670479 -0.08342934 C43.18910931 -0.0846005 44.60151531 -0.08897314 46.01389885 -0.0967617 C62.55831447 -0.17934865 62.55831447 -0.17934865 69.07836914 2.14526367 C69.57336914 3.13526367 69.57336914 3.13526367 70.07836914 4.14526367 C33.44836914 3.65026367 33.44836914 3.65026367 -3.92163086 3.14526367 C-5.31545172 5.9329054 -5.06243179 8.22588759 -5.07984924 11.34609985 C-5.08478722 11.98892642 -5.0897252 12.63175299 -5.09481281 13.29405916 C-5.11022457 15.45751137 -5.11855832 17.62093383 -5.12695312 19.78442383 C-5.13652876 21.33149987 -5.14653866 22.87857329 -5.1569519 24.42564392 C-5.1840411 28.63405215 -5.20502889 32.84247163 -5.22495389 37.05091906 C-5.24678873 41.44586278 -5.27418963 45.84077164 -5.30101013 50.23568726 C-5.35097093 58.56189551 -5.39589717 66.88812308 -5.4390325 75.21436918 C-5.48837596 84.69188821 -5.54330479 94.16937228 -5.59871209 103.6468575 C-5.71258411 123.14629376 -5.81941176 142.64576302 -5.92163086 162.14526367 C-5.26163086 162.47526367 -4.60163086 162.80526367 -3.92163086 163.14526367 C-5.57163086 162.81526367 -7.22163086 162.48526367 -8.92163086 162.14526367 C-8.42663086 161.15526367 -8.42663086 161.15526367 -7.92163086 160.14526367 C-7.81757498 158.05723332 -7.77935539 155.9658301 -7.7701416 153.87522888 C-7.76590919 153.22494077 -7.76167678 152.57465266 -7.75731611 151.90465885 C-7.74425329 149.71589663 -7.738257 147.52717086 -7.73217773 145.33837891 C-7.72423836 143.7732216 -7.71585065 142.2080665 -7.70704651 140.64291382 C-7.68896835 137.26802143 -7.67396045 133.89313399 -7.66127014 130.51821709 C-7.64108758 125.18716667 -7.61343101 119.85617141 -7.58459473 114.52516174 C-7.51933371 102.24754247 -7.46392455 89.96988235 -7.40860748 77.69221497 C-7.35781318 66.43953726 -7.30497076 55.18687957 -7.24408197 43.93425137 C-7.21566209 38.62912185 -7.1920919 33.32399902 -7.17215729 28.01883113 C-7.15881049 24.72573998 -7.14139622 21.43267967 -7.1228466 18.13961411 C-7.11506303 16.60649835 -7.10900559 15.07337277 -7.10475349 13.54024315 C-7.09874527 11.45621398 -7.08671643 9.37230618 -7.07312012 7.28831482 C-7.06796638 6.11931357 -7.06281265 4.95031233 -7.05750275 3.7458868 C-6.80530548 -1.08123431 -4.26230948 0.01447612 0 0 Z " fill="#3C3A33" transform="translate(249.921630859375,723.854736328125)"/>
<path d="M0 0 C0.66 0 1.32 0 2 0 C2.33 4.62 2.66 9.24 3 14 C8.63459131 14.96318207 14.06215947 15.13081449 19.77148438 15.09765625 C20.726866 15.09619598 21.68224762 15.09473572 22.6665802 15.0932312 C24.73124208 15.08943958 26.79590075 15.0833383 28.86054993 15.07516479 C32.13112031 15.06235362 35.40164993 15.05587341 38.67224121 15.05102539 C45.61484579 15.03961942 52.55741672 15.02037952 59.5 15 C67.54746773 14.97637716 75.59491598 14.95599013 83.64241028 14.94406128 C86.85908611 14.93759481 90.07570217 14.92508757 93.2923584 14.91235352 C95.27107695 14.90871972 97.24979605 14.90536815 99.22851562 14.90234375 C100.11807449 14.89717743 101.00763336 14.89201111 101.92414856 14.88668823 C106.72648325 14.88628158 111.2644532 15.1905014 116 16 C115.67 16.66 115.34 17.32 115 18 C100.15357419 18.15376623 85.30710058 18.30180306 70.46054935 18.4429636 C63.56750061 18.50863702 56.67448007 18.57620626 49.78149414 18.64819336 C43.13557842 18.71759491 36.48962579 18.78177314 29.84362602 18.84269524 C27.30175491 18.8668634 24.75990012 18.89281376 22.21806526 18.92053413 C18.6715259 18.95891388 15.12498257 18.99108767 11.57836914 19.02172852 C9.98478577 19.04114754 9.98478577 19.04114754 8.35900879 19.06095886 C6.91812645 19.0715181 6.91812645 19.0715181 5.44813538 19.08229065 C4.60838197 19.09058679 3.76862856 19.09888292 2.90342808 19.10743046 C1 19 1 19 0 18 C-0.08631874 16.65732587 -0.10706473 15.31025678 -0.09765625 13.96484375 C-0.09443359 13.15595703 -0.09121094 12.34707031 -0.08789062 11.51367188 C-0.07951172 10.66353516 -0.07113281 9.81339844 -0.0625 8.9375 C-0.05798828 8.08349609 -0.05347656 7.22949219 -0.04882812 6.34960938 C-0.03700373 4.23304337 -0.01906769 2.11651315 0 0 Z " fill="#1E1D1A" transform="translate(454,637)"/>
<path d="M0 0 C0 0.33 0 0.66 0 1 C-21.78 1.33 -43.56 1.66 -66 2 C-66 15.53 -66 29.06 -66 43 C-66.66 43 -67.32 43 -68 43 C-68 61.81 -68 80.62 -68 100 C-70.12633969 95.74732063 -70.08579431 93.63289289 -70 89 C-70.33 88.34 -70.66 87.68 -71 87 C-70.34 87 -69.68 87 -69 87 C-69 84.69 -69 82.38 -69 80 C-69.66 79.67 -70.32 79.34 -71 79 C-70.34 79 -69.68 79 -69 79 C-69.165 77.845 -69.33 76.69 -69.5 75.5 C-70.31817052 68.87281876 -70.09722341 62.58334047 -69 56 C-69.99 56 -70.98 56 -72 56 C-72 55.34 -72 54.68 -72 54 C-71.34 54 -70.68 54 -70 54 C-69.505 51.03 -69.505 51.03 -69 48 C-69.66 47.67 -70.32 47.34 -71 47 C-70.34 47 -69.68 47 -69 47 C-69.00523682 45.78940918 -69.01047363 44.57881836 -69.01586914 43.33154297 C-69.03401681 38.82520288 -69.04546767 34.318866 -69.05493164 29.8125 C-69.05994955 27.86490332 -69.06676534 25.91731039 -69.07543945 23.96972656 C-69.08761652 21.16470411 -69.09325383 18.35973163 -69.09765625 15.5546875 C-69.10539818 14.25590164 -69.10539818 14.25590164 -69.11329651 12.93087769 C-69.11337204 12.11048004 -69.11344757 11.2900824 -69.11352539 10.44482422 C-69.115746 9.72978729 -69.11796661 9.01475037 -69.12025452 8.27804565 C-68.97203639 5.47027042 -68.50055763 2.76446406 -68 0 C-60.31526025 -0.15443083 -52.63042094 -0.30260378 -44.94541168 -0.4429636 C-41.37630137 -0.50834314 -37.807257 -0.57581324 -34.23828125 -0.64819336 C-30.78891457 -0.71806863 -27.33948323 -0.78227948 -23.88993835 -0.84269524 C-21.9446582 -0.87820513 -19.99948563 -0.91946012 -18.05432129 -0.96083069 C-11.91789461 -1.06354197 -6.0627177 -0.98287509 0 0 Z " fill="#3E3C35" transform="translate(728,724)"/>
<path d="M0 0 C1.14082031 -0.00128906 2.28164063 -0.00257813 3.45703125 -0.00390625 C5.24560547 0.00189453 5.24560547 0.00189453 7.0703125 0.0078125 C8.25496094 0.00394531 9.43960937 0.00007812 10.66015625 -0.00390625 C12.37525391 -0.00197266 12.37525391 -0.00197266 14.125 0 C15.16897949 0.00112793 16.21295898 0.00225586 17.28857422 0.00341797 C20.03195643 0.12554064 22.52470478 0.5135857 25.1953125 1.1328125 C25.1953125 1.4628125 25.1953125 1.7928125 25.1953125 2.1328125 C18.49670328 3.15531655 11.9637927 3.25037523 5.1953125 3.1953125 C4.13441406 3.19080078 3.07351563 3.18628906 1.98046875 3.18164062 C-0.61464348 3.16995093 -3.20963459 3.15356526 -5.8046875 3.1328125 C-5.79945068 4.09993164 -5.79421387 5.06705078 -5.78881836 6.06347656 C-5.77048965 9.70897467 -5.75915543 13.35446886 -5.74975586 17 C-5.7447785 18.5670643 -5.73799421 20.13412408 -5.72924805 21.70117188 C-5.71688881 23.97527187 -5.71139323 26.24930963 -5.70703125 28.5234375 C-5.70186996 29.20521057 -5.69670868 29.88698364 -5.69139099 30.5894165 C-5.69069407 36.86189419 -6.27737389 42.80504913 -6.8046875 49.1328125 C4.0853125 48.8028125 14.9753125 48.4728125 26.1953125 48.1328125 C25.7003125 49.1228125 25.7003125 49.1228125 25.1953125 50.1328125 C21.42415421 51.20591668 17.77331102 51.26159527 13.87109375 51.265625 C12.08155273 51.26755859 12.08155273 51.26755859 10.25585938 51.26953125 C8.40057617 51.26373047 8.40057617 51.26373047 6.5078125 51.2578125 C4.63512695 51.26361328 4.63512695 51.26361328 2.72460938 51.26953125 C1.53544922 51.26824219 0.34628906 51.26695312 -0.87890625 51.265625 C-1.96776123 51.26449707 -3.05661621 51.26336914 -4.1784668 51.26220703 C-6.8046875 51.1328125 -6.8046875 51.1328125 -8.8046875 50.1328125 C-8.8046875 33.9628125 -8.8046875 17.7928125 -8.8046875 1.1328125 C-5.62448137 0.07274379 -3.34003979 0.00361644 0 0 Z " fill="#0C0C0A" transform="translate(283.8046875,749.8671875)"/>
<path d="M0 0 C0.66 0 1.32 0 2 0 C2 44.55 2 89.1 2 135 C1.67 135 1.34 135 1 135 C-0.17319279 124.01677609 -0.11835971 113.07458981 -0.07516479 102.0429821 C-0.06227042 98.71814715 -0.0558536 95.39335259 -0.05102539 92.0684967 C-0.03967374 85.02481277 -0.02039624 77.98116278 0 70.9375 C0.02362277 62.73956612 0.04397366 54.54165074 0.05593872 46.34369087 C0.06241819 43.06869602 0.0749184 39.79375924 0.08764648 36.51878357 C0.09127755 34.51895193 0.09462946 32.51911976 0.09765625 30.51928711 C0.10282257 29.60966721 0.10798889 28.7000473 0.11331177 27.76286316 C0.11338226 26.92632202 0.11345276 26.08978088 0.11352539 25.22789001 C0.115746 24.5036531 0.11796661 23.77941618 0.12025452 23.03323269 C0.06264217 20.9502681 0.06264217 20.9502681 -0.56959534 18.79825687 C-0.71162888 18.20483211 -0.85366241 17.61140734 -1 17 C-0.67 16.67 -0.34 16.34 0 16 C0.07319621 13.30345146 0.09242537 10.63308542 0.0625 7.9375 C0.05798828 7.17888672 0.05347656 6.42027344 0.04882812 5.63867188 C0.0370068 3.75908129 0.01907078 1.87953101 0 0 Z " fill="#35322E" transform="translate(416,753)"/>
<path d="M0 0 C2 2 2 2 2.22705078 4.06298828 C2.21657715 4.89040527 2.20610352 5.71782227 2.1953125 6.5703125 C2.18886719 7.46621094 2.18242188 8.36210938 2.17578125 9.28515625 C2.15902344 10.22230469 2.14226563 11.15945313 2.125 12.125 C2.11597656 13.06988281 2.10695313 14.01476562 2.09765625 14.98828125 C2.07404522 17.32577292 2.04111516 19.66276123 2 22 C1.67 22 1.34 22 1 22 C0.505 13.09 0.505 13.09 0 4 C-0.33 9.28 -0.66 14.56 -1 20 C-6.28 20 -11.56 20 -17 20 C-17 19.67 -17 19.34 -17 19 C-12.05 19 -7.1 19 -2 19 C-2 14.38 -2 9.76 -2 5 C-20.315 4.505 -20.315 4.505 -39 4 C-38.67 3.01 -38.34 2.02 -38 1 C-33.0703976 0.97528545 -28.14083126 0.95713309 -23.21118164 0.94506836 C-21.53409192 0.94003887 -19.85700658 0.93321452 -18.17993164 0.92456055 C-15.769683 0.91243441 -13.35949232 0.90675785 -10.94921875 0.90234375 C-10.19912033 0.89718246 -9.44902191 0.89202118 -8.67619324 0.88670349 C-5.51048768 0.88636215 -3.02662028 0.99112657 0 2 C0 1.34 0 0.68 0 0 Z " fill="#252320" transform="translate(720,651)"/>
<path d="M0 0 C9.57928222 -0.06950112 19.15847768 -0.12281176 28.737957 -0.15543652 C33.18607232 -0.17109453 37.63401519 -0.19233521 42.08203125 -0.22631836 C46.37437893 -0.25890708 50.66656068 -0.27685199 54.95902252 -0.28463173 C56.59690208 -0.29017613 58.23477253 -0.30100298 59.87258148 -0.31719017 C62.16623073 -0.33895838 64.45919381 -0.34196725 66.75292969 -0.34057617 C68.05864929 -0.34723801 69.3643689 -0.35389984 70.70965576 -0.36076355 C74 0 74 0 78 3 C51.93 3 25.86 3 -1 3 C-0.67 2.01 -0.34 1.02 0 0 Z " fill="#040403" transform="translate(662,725)"/>
<path d="M0 0 C0.99 0.495 0.99 0.495 2 1 C2.14339025 8.1349905 2.28569147 15.27000214 2.42724609 22.4050293 C2.4754995 24.83081552 2.52399952 27.25659684 2.57275391 29.68237305 C2.64290619 33.17495478 2.7121631 36.6675533 2.78125 40.16015625 C2.80312378 41.23959 2.82499756 42.31902374 2.84753418 43.4311676 C3.16048722 59.3835079 3.16048722 59.3835079 1 66 C0.67 66 0.34 66 0 66 C0 44.22 0 22.44 0 0 Z " fill="#030302" transform="translate(359,334)"/>
<path d="M0 0 C6.93 0.33 13.86 0.66 21 1 C21 1.33 21 1.66 21 2 C15.06 2 9.12 2 3 2 C2.36054838 13.03054052 1.83776745 23.9501609 2 35 C0.515 35.495 0.515 35.495 -1 36 C-1.02468447 31.19450253 -1.04285255 26.38904182 -1.05493164 21.58349609 C-1.05996621 19.94807289 -1.06679427 18.3126542 -1.07543945 16.67724609 C-1.08754335 14.32909025 -1.093237 11.98099381 -1.09765625 9.6328125 C-1.10281754 8.89942657 -1.10797882 8.16604065 -1.11329651 7.41043091 C-1.11387171 2.22774341 -1.11387171 2.22774341 0 0 Z " fill="#272621" transform="translate(692,825)"/>
<path d="M0 0 C0.66 0 1.32 0 2 0 C1.6143354 7.11484687 0.60900601 13.35441866 -2 20 C-2.99 18.68 -3.98 17.36 -5 16 C-5.33 16.66 -5.66 17.32 -6 18 C-6.99 17.01 -7.98 16.02 -9 15 C-8.67 14.01 -8.34 13.02 -8 12 C-7.34 12 -6.68 12 -6 12 C-5.7525 11.319375 -5.505 10.63875 -5.25 9.9375 C-3.75802092 6.43134917 -1.93164489 3.28379632 0 0 Z " fill="#161613" transform="translate(567,172)"/>
<path d="M0 0 C0.33 0 0.66 0 1 0 C2.31244508 16.74050208 3.58090633 33.22957479 2 50 C1.01 50.495 1.01 50.495 0 51 C0 34.17 0 17.34 0 0 Z " fill="#060706" transform="translate(449,815)"/>
<path d="M0 0 C11.88 0 23.76 0 36 0 C36 0.33 36 0.66 36 1 C28.713573 2.03435084 21.77627572 1.94735442 14.4375 1.5625 C12.78137695 1.48418945 12.78137695 1.48418945 11.09179688 1.40429688 C8.39415864 1.27583791 5.6970101 1.14093867 3 1 C3.00580078 1.81114258 3.01160156 2.62228516 3.01757812 3.45800781 C3.02208984 4.52889648 3.02660156 5.59978516 3.03125 6.703125 C3.03705078 7.76176758 3.04285156 8.82041016 3.04882812 9.91113281 C2.98915468 13.68607471 2.57356026 17.27185831 2 21 C0 19 0 19 -0.22705078 17.02880859 C-0.21657715 16.24328613 -0.20610352 15.45776367 -0.1953125 14.6484375 C-0.19031738 13.88192871 -0.18532227 13.11541992 -0.18017578 12.32568359 C-0.16196777 11.35195801 -0.14375977 10.37823242 -0.125 9.375 C-0.08375 6.28125 -0.0425 3.1875 0 0 Z " fill="#0F0E0D" transform="translate(691,751)"/>
<path d="M0 0 C1.9375 0.3125 1.9375 0.3125 4 1 C4.33 1.99 4.66 2.98 5 4 C5.99 4.33 6.98 4.66 8 5 C8 5.66 8 6.32 8 7 C8.556875 7.226875 9.11375 7.45375 9.6875 7.6875 C12.65239972 9.37028092 14.616515 11.56108512 17 14 C19.30166997 16.03793695 21.64451198 18.02464837 24 20 C22.02 20.99 22.02 20.99 20 22 C19.5875 21.50371094 19.175 21.00742187 18.75 20.49609375 C15.05342525 16.14766765 11.20900859 12.30140226 6.8671875 8.6015625 C4.4262029 6.50783094 2.17076114 4.37426999 0 2 C0 1.34 0 0.68 0 0 Z " fill="#181814" transform="translate(532,262)"/>
<path d="M0 0 C0.66 0 1.32 0 2 0 C2.02712325 2.87506421 2.04689851 5.74986908 2.0625 8.625 C2.07087891 9.43324219 2.07925781 10.24148438 2.08789062 11.07421875 C2.10599084 15.5268715 1.77024372 19.60507997 1 24 C0.74156269 27.28835493 0.58884303 30.58018776 0.4375 33.875 C0.39431641 34.75414062 0.35113281 35.63328125 0.30664062 36.5390625 C0.20130661 38.69255797 0.10022351 40.84626064 0 43 C-0.33 43 -0.66 43 -1 43 C-1 35.41 -1 27.82 -1 20 C-1.66 19.67 -2.32 19.34 -3 19 C-2.34 19 -1.68 19 -1 19 C-1.20625 18.0925 -1.4125 17.185 -1.625 16.25 C-2.45171832 10.75741936 -1.06950309 5.38287092 0 0 Z " fill="#2A2924" transform="translate(660,816)"/>
<path d="M0 0 C0.33 0 0.66 0 1 0 C1.33 5.94 1.66 11.88 2 18 C2.33 16.35 2.66 14.7 3 13 C3.33 13 3.66 13 4 13 C4.05384521 15.29141286 4.09272087 17.58318188 4.125 19.875 C4.14820313 21.15117188 4.17140625 22.42734375 4.1953125 23.7421875 C4 27 4 27 2 29 C1.53603307 31.89223503 1.53603307 31.89223503 1.375 35.125 C1.30023437 36.22070312 1.22546875 37.31640625 1.1484375 38.4453125 C1.07496094 39.70988281 1.07496094 39.70988281 1 41 C0.67 41 0.34 41 0 41 C0 27.47 0 13.94 0 0 Z " fill="#1E1D1A" transform="translate(690,752)"/>
<path d="M0 0 C0.33 0 0.66 0 1 0 C1.33 4.95 1.66 9.9 2 15 C2.33 15 2.66 15 3 15 C3.08112454 17.58396679 3.14054748 20.16537568 3.1875 22.75 C3.22520508 23.84441406 3.22520508 23.84441406 3.26367188 24.9609375 C3.32948616 29.78731876 3.03849871 30.94866839 0 35 C0 23.45 0 11.9 0 0 Z " fill="#11110F" transform="translate(690,845)"/>
<path d="M0 0 C0.33 0 0.66 0 1 0 C1.05793591 4.43744539 1.09357467 8.87479389 1.125 13.3125 C1.14175781 14.57513672 1.15851563 15.83777344 1.17578125 17.13867188 C1.18222656 18.34716797 1.18867188 19.55566406 1.1953125 20.80078125 C1.20578613 21.91622314 1.21625977 23.03166504 1.22705078 24.1809082 C1 27 1 27 -1 30 C-1.66 30.33 -2.32 30.66 -3 31 C-3.05418326 28.91695462 -3.09287551 26.83350232 -3.125 24.75 C-3.14820313 23.58984375 -3.17140625 22.4296875 -3.1953125 21.234375 C-3.00074934 18.01240899 -2.41242527 16.78204978 -1 14 C-0.71121265 11.59162245 -0.50954974 9.17189532 -0.375 6.75 C-0.30023438 5.48671875 -0.22546875 4.2234375 -0.1484375 2.921875 C-0.09945313 1.95765625 -0.05046875 0.9934375 0 0 Z " fill="#2D2C26" transform="translate(277,853)"/>
<path d="M0 0 C1.18787109 -0.00128906 2.37574219 -0.00257813 3.59960938 -0.00390625 C5.4780957 0.00189453 5.4780957 0.00189453 7.39453125 0.0078125 C8.62751953 0.00394531 9.86050781 0.00007812 11.13085938 -0.00390625 C12.32517578 -0.00261719 13.51949219 -0.00132812 14.75 0 C15.8433667 0.00112793 16.9367334 0.00225586 18.06323242 0.00341797 C21.18863366 0.13205528 24.13643306 0.55131887 27.20703125 1.1328125 C24.3744355 3.96540825 22.48008465 3.39119511 18.51953125 3.3984375 C17.86122314 3.40035095 17.20291504 3.4022644 16.5246582 3.40423584 C15.13264585 3.405597 13.74062078 3.40190533 12.34863281 3.39355469 C10.21520536 3.3828535 8.08261994 3.39345156 5.94921875 3.40625 C4.59765439 3.40492839 3.24609055 3.40236597 1.89453125 3.3984375 C0.66089844 3.39618164 -0.57273437 3.39392578 -1.84375 3.39160156 C-4.79296875 3.1328125 -4.79296875 3.1328125 -6.79296875 1.1328125 C-5.01284938 -0.64730687 -2.40577361 0.00249469 0 0 Z " fill="#060605" transform="translate(697.79296875,797.8671875)"/>
<path d="M0 0 C0.33 0 0.66 0 1 0 C2.04947813 5.18022405 2.18338676 10.17666059 2.1875 15.4375 C2.19974609 16.25798828 2.21199219 17.07847656 2.22460938 17.92382812 C2.23678721 23.01010373 1.64082158 27.18130262 0 32 C-0.33 32 -0.66 32 -1 32 C-1.02901401 27.41667994 -1.04680348 22.83338349 -1.0625 18.25 C-1.07087891 16.94804687 -1.07925781 15.64609375 -1.08789062 14.3046875 C-1.09111328 13.05429687 -1.09433594 11.80390625 -1.09765625 10.515625 C-1.10289307 9.36352539 -1.10812988 8.21142578 -1.11352539 7.02441406 C-1.01804485 4.48073036 -0.74917261 2.41601687 0 0 Z " fill="#0A0908" transform="translate(360,368)"/>
<path d="M0 0 C0.99 0.495 0.99 0.495 2 1 C3.42209318 5.26627955 3.18430585 9.34388163 3.1875 13.8125 C3.19974609 14.70259766 3.21199219 15.59269531 3.22460938 16.50976562 C3.23551969 21.41576934 2.92467424 25.39751812 1 30 C0.67 30 0.34 30 0 30 C0 20.1 0 10.2 0 0 Z " fill="#1A1917" transform="translate(637,385)"/>
<path d="M0 0 C0.66 0.99 1.32 1.98 2 3 C0.18682911 10.93262266 -6.84461775 17.19224582 -13 22 C-13 21.34 -13 20.68 -13 20 C-13.66 19.67 -14.32 19.34 -15 19 C-14.236875 18.566875 -13.47375 18.13375 -12.6875 17.6875 C-7.48090314 14.41824151 -5.06454586 10.26236923 -2.375 4.8125 C-1.92898438 3.91144531 -1.48296875 3.01039063 -1.0234375 2.08203125 C-0.68570313 1.39496094 -0.34796875 0.70789063 0 0 Z " fill="#181714" transform="translate(561,191)"/>
<path d="M0 0 C6.93352867 5.01661192 13.46202516 10.48630789 20 16 C19.01 16.33 18.02 16.66 17 17 C16.34 16.67 15.68 16.34 15 16 C15 15.34 15 14.68 15 14 C14.113125 13.773125 13.22625 13.54625 12.3125 13.3125 C8.50214199 11.80273551 6.73049494 10.01791547 4 7 C3.236875 6.29875 2.47375 5.5975 1.6875 4.875 C0 3 0 3 0 0 Z " fill="#1C1C18" transform="translate(581,303)"/>
<path d="M0 0 C0.66 0.33 1.32 0.66 2 1 C1.34 7.6 0.68 14.2 0 21 C-0.99 21.33 -1.98 21.66 -3 22 C-2.88525534 19.45749979 -2.7585303 16.91652662 -2.625 14.375 C-2.5940625 13.66214844 -2.563125 12.94929687 -2.53125 12.21484375 C-2.28979845 7.82847392 -1.60657269 4.1405166 0 0 Z " fill="#181715" transform="translate(457,549)"/>
<path d="M0 0 C0.96679688 0.00322266 1.93359375 0.00644531 2.9296875 0.00976562 C3.88875 -0.00634766 4.8478125 -0.02246094 5.8359375 -0.0390625 C6.76148438 -0.03970703 7.68703125 -0.04035156 8.640625 -0.04101562 C9.4867334 -0.04399658 10.3328418 -0.04697754 11.20458984 -0.05004883 C13.5546875 0.32226562 13.5546875 0.32226562 17.5546875 3.32226562 C8.6446875 2.99226562 -0.2653125 2.66226563 -9.4453125 2.32226562 C-6.52111084 -0.60193604 -4.00014512 0.03072737 0 0 Z " fill="#0B0A08" transform="translate(722.4453125,724.677734375)"/>
<path d="M0 0 C0.66 0.33 1.32 0.66 2 1 C0.71034824 2.37562854 -0.62689293 3.70766393 -2 5 C-2.66 5 -3.32 5 -4 5 C-4.24105469 5.57363281 -4.48210937 6.14726562 -4.73046875 6.73828125 C-6.2469778 9.44000046 -8.00721647 11.12243089 -10.3125 13.1875 C-11.07175781 13.88230469 -11.83101563 14.57710938 -12.61328125 15.29296875 C-15.15371517 17.10994031 -16.92838582 17.63575549 -20 18 C-13.7581137 11.55005083 -7.05002718 5.5518964 0 0 Z " fill="#1B1A17" transform="translate(449,300)"/>
<path d="M0 0 C6.93 0 13.86 0 21 0 C21.33 1.32 21.66 2.64 22 4 C21.67 3.34 21.34 2.68 21 2 C20.01 2.495 20.01 2.495 19 3 C16.52637238 3.15061901 14.09958185 3.23125317 11.625 3.25 C10.95210937 3.270625 10.27921875 3.29125 9.5859375 3.3125 C4.93206871 3.34914464 3.9371313 2.95284848 0 0 Z " fill="#2A2925" transform="translate(618,832)"/>
<path d="M0 0 C3.27066566 -0.08706892 6.54103365 -0.14041241 9.8125 -0.1875 C10.74126953 -0.21263672 11.67003906 -0.23777344 12.62695312 -0.26367188 C13.9659668 -0.27817383 13.9659668 -0.27817383 15.33203125 -0.29296875 C16.56530151 -0.31653442 16.56530151 -0.31653442 17.82348633 -0.34057617 C20 0 20 0 23 3 C15.08 2.67 7.16 2.34 -1 2 C-0.67 1.34 -0.34 0.68 0 0 Z " fill="#0C0C0A" transform="translate(297,725)"/>
<path d="M0 0 C7.92 0 15.84 0 24 0 C24 0.66 24 1.32 24 2 C23.34 2 22.68 2 22 2 C21.67 2.66 21.34 3.32 21 4 C20.34 3.67 19.68 3.34 19 3 C16.67085177 2.63858045 14.33746522 2.30300475 12 2 C11.67 2.66 11.34 3.32 11 4 C11 3.34 11 2.68 11 2 C7.37 1.67 3.74 1.34 0 1 C0 0.67 0 0.34 0 0 Z " fill="#0D0C0A" transform="translate(425,884)"/>
<path d="M0 0 C-0.33 0.66 -0.66 1.32 -1 2 C-3.64860427 2.59355614 -6.29197322 2.74209269 -9 3 C-9 3.66 -9 4.32 -9 5 C-12.04386724 5.08226668 -14.07175348 4.97608217 -17 4 C-18.66621616 3.96125079 -20.33394172 3.9549714 -22 4 C-22.33 3.01 -22.66 2.02 -23 1 C-21.85724609 1.03480469 -21.85724609 1.03480469 -20.69140625 1.0703125 C-15.59014128 1.15947319 -10.85191425 1.14722304 -5.875 -0.0625 C-2 -1 -2 -1 0 0 Z " fill="#1F1E1A" transform="translate(545,197)"/>
<path d="M0 0 C2.0926428 4.18528561 2.43674331 6.75907047 2.75 11.375 C2.84796875 12.66148437 2.9459375 13.94796875 3.046875 15.2734375 C3.00028518 18.97732849 2.37421413 21.58560642 1 25 C0.67 25 0.34 25 0 25 C0 16.75 0 8.5 0 0 Z " fill="#060606" transform="translate(449,775)"/>
<path d="M0 0 C0.33 0 0.66 0 1 0 C1.33 3.63 1.66 7.26 2 11 C2.33 11 2.66 11 3 11 C3.21755666 16.4389165 3.10428384 20.87080814 1 26 C-0.1150058 22.26756532 -0.3523613 18.56286442 -0.625 14.6875 C-0.72039063 13.41261719 -0.81578125 12.13773438 -0.9140625 10.82421875 C-0.99974596 7.0113046 -0.64845666 3.74072388 0 0 Z " fill="#313029" transform="translate(659,860)"/>
<path d="M0 0 C4.88049925 3.9419417 9.0580583 8.11950075 13 13 C9.0234755 13 7.9109833 11.61988497 5 9 C4.505 8.2575 4.01 7.515 3.5 6.75 C2.08973751 4.69402911 2.08973751 4.69402911 -0.6875 4.75 C-1.8321875 4.87375 -1.8321875 4.87375 -3 5 C-2.01 3.35 -1.02 1.7 0 0 Z " fill="#1D1C18" transform="translate(334,252)"/>
<path d="M0 0 C2 2 2 2 2.265625 4.64453125 C2.25789062 6.21267578 2.25789062 6.21267578 2.25 7.8125 C2.25515625 8.85019531 2.2603125 9.88789062 2.265625 10.95703125 C1.99831735 14.0192763 1.29090101 16.22866092 0 19 C-0.33 19 -0.66 19 -1 19 C-1.02683987 16.02077407 -1.04676037 13.04178705 -1.0625 10.0625 C-1.07087891 9.21236328 -1.07925781 8.36222656 -1.08789062 7.48632812 C-1.09111328 6.67744141 -1.09433594 5.86855469 -1.09765625 5.03515625 C-1.10289307 4.2862915 -1.10812988 3.53742676 -1.11352539 2.76586914 C-1 1 -1 1 0 0 Z " fill="#11110F" transform="translate(692,780)"/>
<path d="M0 0 C4.29817026 8.02325116 3.42308581 15.51919965 1 24 C-1.67135401 20.16116535 -0.84057805 16.60104357 -0.125 12.25 C-0.02058594 11.55261719 0.08382813 10.85523438 0.19140625 10.13671875 C0.44967636 8.42274441 0.72332952 6.7111005 1 5 C0.34 5 -0.32 5 -1 5 C-0.67 3.35 -0.34 1.7 0 0 Z " fill="#22211D" transform="translate(371,296)"/>
<path d="M0 0 C0 0.33 0 0.66 0 1 C-16.70842825 2.33257403 -16.70842825 2.33257403 -25 1 C-25 0.67 -25 0.34 -25 0 C-16.6642882 -1.48190432 -8.3357118 -1.48190432 0 0 Z " fill="#25231E" transform="translate(588,890)"/>
<path d="M0 0 C0.33 0 0.66 0 1 0 C1.02901394 3.4374823 1.04680335 6.87493312 1.0625 10.3125 C1.07087891 11.28896484 1.07925781 12.26542969 1.08789062 13.27148438 C1.09111328 14.20927734 1.09433594 15.14707031 1.09765625 16.11328125 C1.10289307 16.97735596 1.10812988 17.84143066 1.11352539 18.73168945 C1 21 1 21 0 24 C-1.32 23.67 -2.64 23.34 -4 23 C-3.34 23 -2.68 23 -2 23 C-2.020625 21.865625 -2.04125 20.73125 -2.0625 19.5625 C-2 16 -2 16 -1 15 C-0.76346477 12.47403741 -0.57826308 9.96892793 -0.4375 7.4375 C-0.39431641 6.72658203 -0.35113281 6.01566406 -0.30664062 5.28320312 C-0.20028223 3.52238088 -0.09961154 1.7612168 0 0 Z " fill="#34322C" transform="translate(693,861)"/>
<path d="M0 0 C0.33 0 0.66 0 1 0 C1.19865739 8.89543642 1.33447255 17.32910197 -1 26 C-1.33 26 -1.66 26 -2 26 C-2.02684679 23.35409986 -2.04676357 20.70846904 -2.0625 18.0625 C-2.07087891 17.30775391 -2.07925781 16.55300781 -2.08789062 15.77539062 C-2.09652441 13.85005687 -2.05224333 11.92464419 -2 10 C-1.67 9.67 -1.34 9.34 -1 9 C-0.76807135 7.48530552 -0.58784762 5.96245438 -0.4375 4.4375 C-0.35371094 3.61121094 -0.26992188 2.78492188 -0.18359375 1.93359375 C-0.12300781 1.29550781 -0.06242187 0.65742187 0 0 Z " fill="#282722" transform="translate(451,856)"/>
<path d="M0 0 C0.33 0 0.66 0 1 0 C1.9913052 9.05570693 1.97484019 17.08873765 0 26 C-0.33 26 -0.66 26 -1 26 C-1.94537581 21.58824622 -1.76304271 18.40869123 -1 14 C-0.7869844 11.54374607 -0.59996042 9.08511496 -0.4375 6.625 C-0.35371094 5.37976563 -0.26992188 4.13453125 -0.18359375 2.8515625 C-0.12300781 1.91054688 -0.06242187 0.96953125 0 0 Z " fill="#32302B" transform="translate(358,765)"/>
<path d="M0 0 C0.99 0.33 1.98 0.66 3 1 C2.4225 1.5775 1.845 2.155 1.25 2.75 C-1.99497078 7.43718002 -3.37304666 12.57393752 -5 18 C-7 15 -7 15 -6.78125 12.609375 C-5.96855555 9.89497555 -4.91469114 7.70103465 -3.5 5.25 C-3.0565625 4.47140625 -2.613125 3.6928125 -2.15625 2.890625 C-1 1 -1 1 0 0 Z " fill="#1E1D19" transform="translate(503,141)"/>
<path d="M0 0 C0.33 0 0.66 0 1 0 C2.47386455 6.62630011 3.48624743 12.31188658 2 19 C1.34 19.33 0.68 19.66 0 20 C0 13.4 0 6.8 0 0 Z " fill="#10100E" transform="translate(449,754)"/>
<path d="M0 0 C3.35829104 1.43714007 5.39970698 3.20977399 7.8125 5.9375 C8.43769531 6.62714844 9.06289063 7.31679688 9.70703125 8.02734375 C10.34705078 9.00380859 10.34705078 9.00380859 11 10 C10.67 10.99 10.34 11.98 10 13 C8.32722165 11.21371169 6.66175557 9.4214925 5 7.625 C4.28457031 6.86316406 4.28457031 6.86316406 3.5546875 6.0859375 C0 2.2265625 0 2.2265625 0 0 Z " fill="#181815" transform="translate(543,512)"/>
<path d="M0 0 C0.66 0 1.32 0 2 0 C3.25106957 1.44860687 4.49699773 2.90276867 5.69140625 4.3984375 C7.33072334 6.40476588 9.13506951 8.20414101 11 10 C9.68 10.33 8.36 10.66 7 11 C5.82439821 9.73742767 4.65977135 8.46462916 3.5 7.1875 C2.8503125 6.47980469 2.200625 5.77210938 1.53125 5.04296875 C0 3 0 3 0 0 Z " fill="#1F1E1A" transform="translate(545,273)"/>
<path d="M0 0 C2 3 2 3 3 6 C2.34 6.66 1.68 7.32 1 8 C1 7.34 1 6.68 1 6 C-3.455 6.495 -3.455 6.495 -8 7 C-8.66 6.01 -9.32 5.02 -10 4 C-6.7 4 -3.4 4 0 4 C0 2.68 0 1.36 0 0 Z " fill="#11100D" transform="translate(275,880)"/>
<path d="M0 0 C10.395 0.99 10.395 0.99 21 2 C21 2.33 21 2.66 21 3 C14.4 3.33 7.8 3.66 1 4 C0.67 2.68 0.34 1.36 0 0 Z " fill="#312F28" transform="translate(606,775)"/>
<path d="M0 0 C2.12055529 3.53425882 2.61577388 6.92720311 3 11 C2 12 2 12 0.15234375 12.09765625 C-1.8984375 12.06510417 -3.94921875 12.03255208 -6 12 C-6 11.67 -6 11.34 -6 11 C-4.35 10.67 -2.7 10.34 -1 10 C-1.020625 8.906875 -1.04125 7.81375 -1.0625 6.6875 C-1 3 -1 3 0 0 Z " fill="#24221E" transform="translate(637,765)"/>
<path d="M0 0 C0.66 0 1.32 0 2 0 C1.67 3.63 1.34 7.26 1 11 C0.34 9.68 -0.32 8.36 -1 7 C-1.99 8.32 -2.98 9.64 -4 11 C-4.66 10.67 -5.32 10.34 -6 10 C-5.05065487 8.32819726 -4.09026687 6.66266064 -3.125 5 C-2.59132813 4.071875 -2.05765625 3.14375 -1.5078125 2.1875 C-1.01023437 1.465625 -0.51265625 0.74375 0 0 Z " fill="#312E27" transform="translate(567,172)"/>
<path d="M0 0 C0 0.66 0 1.32 0 2 C-4.455 2.495 -4.455 2.495 -9 3 C-9 2.67 -9 2.34 -9 2 C-11.97 1.67 -14.94 1.34 -18 1 C-18 0.67 -18 0.34 -18 0 C-11.76817361 -1.03863773 -6.25307239 -0.83288874 0 0 Z " fill="#26251E" transform="translate(525,129)"/>
<path d="M0 0 C0.33 0 0.66 0 1 0 C1.08075665 2.29109597 1.13907731 4.58299267 1.1875 6.875 C1.22230469 8.15117188 1.25710938 9.42734375 1.29296875 10.7421875 C1.19628906 11.81726563 1.09960938 12.89234375 1 14 C0.01 14.66 -0.98 15.32 -2 16 C-2 12.37 -2 8.74 -2 5 C-1.67 5 -1.34 5 -1 5 C-0.67 3.35 -0.34 1.7 0 0 Z " fill="#272521" transform="translate(693,765)"/>
<path d="M0 0 C3.70503641 0.60334309 5.85968148 2.22474237 8.75 4.5625 C9.94882812 5.52349609 9.94882812 5.52349609 11.171875 6.50390625 C12.07679688 7.24447266 12.07679688 7.24447266 13 8 C12.01 8.33 11.02 8.66 10 9 C7.51953125 7.3828125 7.51953125 7.3828125 4.8125 5.125 C3.91144531 4.38507813 3.01039063 3.64515625 2.08203125 2.8828125 C1.39496094 2.26148438 0.70789063 1.64015625 0 1 C0 0.67 0 0.34 0 0 Z " fill="#191815" transform="translate(566,293)"/>
<path d="M0 0 C4.95 1.98 4.95 1.98 10 4 C10 4.99 10 5.98 10 7 C6.7 6.34 3.4 5.68 0 5 C0 3.35 0 1.7 0 0 Z " fill="#22201C" transform="translate(541,880)"/>
<path d="M0 0 C0.66 0 1.32 0 2 0 C5.17692157 5.24882694 5.65697965 10.01488629 6 16 C4.2133211 13.31998165 3.0677863 10.96871256 1.875 8 C1.52179688 7.13375 1.16859375 6.2675 0.8046875 5.375 C0 3 0 3 0 0 Z " fill="#0F0E0C" transform="translate(351,749)"/>
<path d="M0 0 C0.33 0.66 0.66 1.32 1 2 C-2.07881696 5.87051275 -5.00073014 9.02911382 -9 12 C-9.66 11.67 -10.32 11.34 -11 11 C-7.37 7.37 -3.74 3.74 0 0 Z " fill="#20201C" transform="translate(428,318)"/>
<path d="M0 0 C0 4.32035599 -2.06845243 6.9179135 -5 10 C-7.8125 10.9375 -7.8125 10.9375 -10 11 C-6.79239749 7.19364503 -3.59253891 3.45436433 0 0 Z " fill="#1F1F1C" transform="translate(485,269)"/>
<path d="M0 0 C0.33 0 0.66 0 1 0 C1.4803318 1.58298026 1.95921612 3.16639978 2.4375 4.75 C2.83775391 6.07257813 2.83775391 6.07257813 3.24609375 7.421875 C3.88468494 9.60565835 4.46775833 11.78835498 5 14 C2 13 2 13 0.25 10.375 C-1.21232802 6.42671434 -0.89388075 4.06309431 0 0 Z " fill="#201F1A" transform="translate(497,169)"/>
<path d="M0 0 C0.99 0.33 1.98 0.66 3 1 C2.1875 2.9375 2.1875 2.9375 1 5 C0.01 5.33 -0.98 5.66 -2 6 C-2.33 6.99 -2.66 7.98 -3 9 C-3.66 9 -4.32 9 -5 9 C-3.7508258 5.54074837 -2.32472205 2.85306797 0 0 Z " fill="#1B1B17" transform="translate(481,144)"/>
<path d="M0 0 C4.40114397 0.50298788 6.71195019 2.08772731 10 5 C9.67 5.99 9.34 6.98 9 8 C7.49712782 6.85793642 5.99776716 5.71125043 4.5 4.5625 C3.6646875 3.92441406 2.829375 3.28632813 1.96875 2.62890625 C1.3190625 2.09136719 0.669375 1.55382812 0 1 C0 0.67 0 0.34 0 0 Z " fill="#181715" transform="translate(532,505)"/>
<path d="M0 0 C-1.47559669 4.42679007 -3.90057368 4.91432696 -8 7 C-8.66 7 -9.32 7 -10 7 C-8.60449526 2.81348579 -4.64858615 0 0 0 Z " fill="#1B1A18" transform="translate(502,498)"/>
<path d="M0 0 C4.29 0 8.58 0 13 0 C13 0.33 13 0.66 13 1 C8.46298506 2.45184478 4.81938524 3.23509196 0 3 C0 2.01 0 1.02 0 0 Z " fill="#2F2E28" transform="translate(568,861)"/>
<path d="M0 0 C0.99 0.33 1.98 0.66 3 1 C3.33 3.97 3.66 6.94 4 10 C3.01 9.67 2.02 9.34 1 9 C-0.25 5.5625 -0.25 5.5625 -1 2 C-0.67 1.34 -0.34 0.68 0 0 Z " fill="#252420" transform="translate(541,831)"/>
<path d="M0 0 C0.99 1.485 0.99 1.485 2 3 C2.66 2.67 3.32 2.34 4 2 C4 2.99 4 3.98 4 5 C3.01 5.495 3.01 5.495 2 6 C1.53248212 8.35599235 1.53248212 8.35599235 1.375 11.0625 C1.30023438 11.98160156 1.22546875 12.90070312 1.1484375 13.84765625 C1.09945313 14.55792969 1.05046875 15.26820313 1 16 C0.67 16 0.34 16 0 16 C0 10.72 0 5.44 0 0 Z " fill="#21211D" transform="translate(274,826)"/>
<path d="M0 0 C1.17539996 0.92652701 2.34010577 1.86663387 3.5 2.8125 C4.1496875 3.33457031 4.799375 3.85664063 5.46875 4.39453125 C7 6 7 6 7 9 C5.8225266 8.26708288 4.65823146 7.51296199 3.5 6.75 C2.52546875 6.12351562 2.52546875 6.12351562 1.53125 5.484375 C1.0259375 4.99453125 0.520625 4.5046875 0 4 C0 2.68 0 1.36 0 0 Z " fill="#1C1B18" transform="translate(601,320)"/>
<path d="M0 0 C0.33 0 0.66 0 1 0 C1 2.64 1 5.28 1 8 C1.66 8 2.32 8 3 8 C2.67 11.3 2.34 14.6 2 18 C1.67 18 1.34 18 1 18 C-0.0712828 11.97403427 -0.09945415 6.11090483 0 0 Z " fill="#3C3A31" transform="translate(470,168)"/>
<path d="M0 0 C2.20914 3.31371 2.22481553 4.3446021 2.125 8.1875 C2.10695313 9.08855469 2.08890625 9.98960937 2.0703125 10.91796875 C2.03550781 11.94857422 2.03550781 11.94857422 2 13 C1.01 13.495 1.01 13.495 0 14 C-0.19393875 11.85473901 -0.37998676 9.70876323 -0.5625 7.5625 C-0.71912109 5.77005859 -0.71912109 5.77005859 -0.87890625 3.94140625 C-0.91886719 2.97074219 -0.95882813 2.00007812 -1 1 C-0.67 0.67 -0.34 0.34 0 0 Z " fill="#181814" transform="translate(450,811)"/>
<path d="M0 0 C3.77545388 1.09068668 6.47043472 1.9083091 9 5 C4.72656908 5.36629408 2.51187196 4.40814077 -1 2 C-0.67 1.34 -0.34 0.68 0 0 Z " fill="#201F1B" transform="translate(604,727)"/>
<path d="M0 0 C1.46015291 0.28241641 2.91809793 0.57626614 4.375 0.875 C5.18710937 1.03742187 5.99921875 1.19984375 6.8359375 1.3671875 C9 2 9 2 11 4 C10.67 4.66 10.34 5.32 10 6 C9.34 6 8.68 6 8 6 C8 5.34 8 4.68 8 4 C7.34 4 6.68 4 6 4 C6 3.34 6 2.68 6 2 C4.35 2.33 2.7 2.66 1 3 C0.67 2.01 0.34 1.02 0 0 Z " fill="#262420" transform="translate(319,726)"/>
<path d="M0 0 C-0.99 3.3 -1.98 6.6 -3 10 C-5.05825864 5.88348273 -5.34008135 5.13191749 -4 1 C-2 0 -2 0 0 0 Z " fill="#1B1A18" transform="translate(463,538)"/>
<path d="M0 0 C2.96404505 2.80804268 5.44499019 5.18315774 7 9 C4.37098712 7.47793991 2.15634036 6.15634036 0 4 C0 2.68 0 1.36 0 0 Z " fill="#201F1B" transform="translate(358,276)"/>
<path d="M0 0 C0.66 0.33 1.32 0.66 2 1 C2 1.99 2 2.98 2 4 C-1.50776784 5.60355101 -4.14354879 6.22036864 -8 6 C-5.33333333 4 -2.66666667 2 0 0 Z " fill="#22211D" transform="translate(553,190)"/>
<path d="M0 0 C0 0.66 0 1.32 0 2 C-1.65 1.67 -3.3 1.34 -5 1 C-5.33 1.66 -5.66 2.32 -6 3 C-6.33 2.67 -6.66 2.34 -7 2 C-9.33297433 1.95907063 -11.66705225 1.95758277 -14 2 C-14 1.34 -14 0.68 -14 0 C-12.04235617 -0.19456705 -10.08384679 -0.38044247 -8.125 -0.5625 C-6.48917969 -0.71912109 -6.48917969 -0.71912109 -4.8203125 -0.87890625 C-2 -1 -2 -1 0 0 Z " fill="#201E1A" transform="translate(266,885)"/>
<path d="M0 0 C0.66 0 1.32 0 2 0 C1.67 4.29 1.34 8.58 1 13 C0.67 13 0.34 13 0 13 C-0.19397476 11.02145742 -0.38001321 9.0421352 -0.5625 7.0625 C-0.66691406 5.96035156 -0.77132812 4.85820313 -0.87890625 3.72265625 C-0.91886719 2.82417969 -0.95882812 1.92570313 -1 1 C-0.67 0.67 -0.34 0.34 0 0 Z " fill="#2A2A25" transform="translate(538,786)"/>
<path d="M0 0 C0.33 0 0.66 0 1 0 C1.19491452 1.45736087 1.38069358 2.91594593 1.5625 4.375 C1.66691406 5.18710937 1.77132813 5.99921875 1.87890625 6.8359375 C2 9 2 9 1 11 C-0.32 10.67 -1.64 10.34 -3 10 C-2.34 10 -1.68 10 -1 10 C-0.67 6.7 -0.34 3.4 0 0 Z " fill="#282622" transform="translate(324,776)"/>
<path d="M0 0 C0.33 0 0.66 0 1 0 C1.33 1.65 1.66 3.3 2 5 C2.33 5 2.66 5 3 5 C2.67 7.97 2.34 10.94 2 14 C1.67 14 1.34 14 1 14 C-0.20568053 9.32798795 -0.09382426 4.78503708 0 0 Z " fill="#21211C" transform="translate(389,405)"/>
<path d="M0 0 C1.32 0 2.64 0 4 0 C3.25 2.4375 3.25 2.4375 2 5 C-0.125 5.8125 -0.125 5.8125 -2 6 C-1.34 4.02 -0.68 2.04 0 0 Z " fill="#21211D" transform="translate(604,840)"/>
<path d="M0 0 C0.33 0 0.66 0 1 0 C1 6.27 1 12.54 1 19 C0.67 19 0.34 19 0 19 C0 12.73 0 6.46 0 0 Z " fill="#423F36" transform="translate(241,790)"/>
<path d="M0 0 C5.75 0.75 5.75 0.75 8 3 C7 4 7 4 4.4375 4.0625 C3.2309375 4.0315625 3.2309375 4.0315625 2 4 C1.34 2.68 0.68 1.36 0 0 Z " fill="#24241F" transform="translate(595,724)"/>
<path d="M0 0 C0.33 0.66 0.66 1.32 1 2 C1.66 2 2.32 2 3 2 C3.33 3.98 3.66 5.96 4 8 C3.01 8.495 3.01 8.495 2 9 C0.50178941 5.62902617 0 3.79557881 0 0 Z " fill="#1B1A18" transform="translate(392,423)"/>
<path d="M0 0 C1.76462683 3.08809695 2 4.23312136 2 8 C1.34 8 0.68 8 0 8 C-0.33 9.32 -0.66 10.64 -1 12 C-1.08159574 7.83861737 -0.98248524 4.0527516 0 0 Z " fill="#23221F" transform="translate(390,380)"/>
<path d="M0 0 C0.33 0 0.66 0 1 0 C1.25 2.25 1.25 2.25 1 5 C-1 7.3125 -1 7.3125 -3 9 C-3.33 8.34 -3.66 7.68 -4 7 C-3.22265625 5.2734375 -3.22265625 5.2734375 -2.0625 3.375 C-1.381875 2.26125 -0.70125 1.1475 0 0 Z " fill="#1B1B18" transform="translate(403,348)"/>
<path d="M0 0 C0.66 0.99 1.32 1.98 2 3 C-2.75 7.875 -2.75 7.875 -5 9 C-3.7508258 5.54074837 -2.32472205 2.85306797 0 0 Z " fill="#1E1D1A" transform="translate(308,279)"/>
<path d="M0 0 C2.31 1.98 4.62 3.96 7 6 C6.34 6.66 5.68 7.32 5 8 C2.5 5.6875 2.5 5.6875 0 3 C0 2.01 0 1.02 0 0 Z " fill="#201F1B" transform="translate(347,265)"/>
<path d="M0 0 C0.99 0 1.98 0 3 0 C3.99 1.98 4.98 3.96 6 6 C5.34 6.66 4.68 7.32 4 8 C0 2.25 0 2.25 0 0 Z " fill="#1B1A16" transform="translate(475,196)"/>
<path d="M0 0 C0 0.66 0 1.32 0 2 C0.66 2.33 1.32 2.66 2 3 C-4.625 2.25 -4.625 2.25 -8 0 C-4.71023192 -1.09658936 -3.28696233 -0.79953138 0 0 Z " fill="#25241F" transform="translate(560,887)"/>
<path d="M0 0 C3 1 3 1 4.1875 3.0625 C4.455625 3.701875 4.72375 4.34125 5 5 C4.01 5.99 3.02 6.98 2 8 C1.33333333 5.33333333 0.66666667 2.66666667 0 0 Z " fill="#252420" transform="translate(721,839)"/>
<path d="M0 0 C2.1640625 -0.29296875 2.1640625 -0.29296875 4.625 -0.1875 C5.44226563 -0.16042969 6.25953125 -0.13335938 7.1015625 -0.10546875 C8.04128906 -0.05326172 8.04128906 -0.05326172 9 0 C5.36383344 1.9789756 2.11574371 2.5251065 -2 3 C-1.34 2.01 -0.68 1.02 0 0 Z " fill="#0D0C0A" transform="translate(556,724)"/>
<path d="M0 0 C2.5 2.3125 2.5 2.3125 5 5 C5 5.99 5 6.98 5 8 C4.34 8 3.68 8 3 8 C0.25624329 5.04518508 0 4.22528092 0 0 Z " fill="#1B1B17" transform="translate(613,332)"/>
<path d="M0 0 C0.33 0.99 0.66 1.98 1 3 C0.54625 3.433125 0.0925 3.86625 -0.375 4.3125 C-2.20024334 6.10798342 -2.20024334 6.10798342 -4 9 C-4.8125 7.3125 -4.8125 7.3125 -5 5 C-2.5625 2.25 -2.5625 2.25 0 0 Z " fill="#22201D" transform="translate(365,327)"/>
<path d="M0 0 C0.33 1.32 0.66 2.64 1 4 C-1.375 5.5625 -1.375 5.5625 -4 7 C-4.66 6.67 -5.32 6.34 -6 6 C-4.02 4.02 -2.04 2.04 0 0 Z " fill="#272622" transform="translate(324,262)"/>
<path d="M0 0 C0.33 0 0.66 0 1 0 C1 4.95 1 9.9 1 15 C0.67 15 0.34 15 0 15 C-0.84888195 9.62374766 -1.0024305 5.34629602 0 0 Z " fill="#423F36" transform="translate(241,818)"/>
<path d="M0 0 C1.5625 1.1875 1.5625 1.1875 3 3 C2.6875 5.6875 2.6875 5.6875 2 8 C0.68 7.01 -0.64 6.02 -2 5 C-1.34 3.35 -0.68 1.7 0 0 Z " fill="#282621" transform="translate(604,767)"/>
<path d="M0 0 C2.31 0.66 4.62 1.32 7 2 C6.01 3.485 6.01 3.485 5 5 C3.68 4.67 2.36 4.34 1 4 C0.67 2.68 0.34 1.36 0 0 Z " fill="#24231F" transform="translate(745,728)"/>
<path d="M0 0 C0.66 0.33 1.32 0.66 2 1 C1.67 1.99 1.34 2.98 1 4 C-1.0625 4.6875 -1.0625 4.6875 -3 5 C-3.66 4.01 -4.32 3.02 -5 2 C-2.625 0.9375 -2.625 0.9375 0 0 Z " fill="#23231F" transform="translate(550,726)"/>
<path d="M0 0 C0.66 0 1.32 0 2 0 C3.53166168 4.08443115 2.63081652 7.79455657 2 12 C1.67 12 1.34 12 1 12 C0.67 8.04 0.34 4.08 0 0 Z " fill="#2C2B26" transform="translate(566,551)"/>
<path d="M0 0 C0.66 0.33 1.32 0.66 2 1 C0.25 6.75 0.25 6.75 -2 9 C-1.125 2.25 -1.125 2.25 0 0 Z " fill="#191815" transform="translate(627,441)"/>
<path d="M0 0 C2.12508244 3.18762365 2.5020163 5.26512223 3 9 C2.01 8.67 1.02 8.34 0 8 C-0.79953138 4.71303767 -1.09658936 3.28976808 0 0 Z " fill="#1E1D1A" transform="translate(634,367)"/>
<path d="M0 0 C2.875 0.25 2.875 0.25 6 1 C7.375 3.0625 7.375 3.0625 8 5 C4.62496331 3.8141763 2.35277269 2.72426311 0 0 Z " fill="#201E1B" transform="translate(489,213)"/>
<path d="M0 0 C0.33 0 0.66 0 1 0 C1 4.62 1 9.24 1 14 C0.67 14 0.34 14 0 14 C-0.19393875 11.85473901 -0.37998676 9.70876323 -0.5625 7.5625 C-0.71912109 5.77005859 -0.71912109 5.77005859 -0.87890625 3.94140625 C-0.91886719 2.97074219 -0.95882812 2.00007812 -1 1 C-0.67 0.67 -0.34 0.34 0 0 Z " fill="#423F35" transform="translate(241,842)"/>
<path d="M0 0 C0.99 0.33 1.98 0.66 3 1 C2.67 1.66 2.34 2.32 2 3 C1.34 3 0.68 3 0 3 C0 2.01 0 1.02 0 0 Z " fill="#403D34" transform="translate(736,873)"/>
<path d="M0 0 C0.33 0 0.66 0 1 0 C1 2.31 1 4.62 1 7 C0.67 7 0.34 7 0 7 C0 4.69 0 2.38 0 0 Z " fill="#433F36" transform="translate(241,834)"/>
<path d="M0 0 C0.33 0 0.66 0 1 0 C1 2.31 1 4.62 1 7 C0.67 7 0.34 7 0 7 C0 4.69 0 2.38 0 0 Z " fill="#444037" transform="translate(241,770)"/>
<path d="M0 0 C0.33 0 0.66 0 1 0 C1 2.31 1 4.62 1 7 C0.67 7 0.34 7 0 7 C0 4.69 0 2.38 0 0 Z " fill="#433F36" transform="translate(241,762)"/>
<path d="M0 0 C0.33 0 0.66 0 1 0 C1 2.31 1 4.62 1 7 C0.67 7 0.34 7 0 7 C0 4.69 0 2.38 0 0 Z " fill="#454137" transform="translate(241,738)"/>
<path d="M0 0 C0.33 0 0.66 0 1 0 C1 2.31 1 4.62 1 7 C0.67 7 0.34 7 0 7 C0 4.69 0 2.38 0 0 Z " fill="#464339" transform="translate(241,730)"/>
<path d="M0 0 C0.33 0 0.66 0 1 0 C1 1.98 1 3.96 1 6 C0.67 6 0.34 6 0 6 C0 4.02 0 2.04 0 0 Z " fill="#423E35" transform="translate(241,867)"/>
<path d="M0 0 C0.66 0.33 1.32 0.66 2 1 C1.67 1.99 1.34 2.98 1 4 C1 3.34 1 2.68 1 2 C0.34 1.67 -0.32 1.34 -1 1 C-0.67 0.67 -0.34 0.34 0 0 Z " fill="#403D36" transform="translate(321,769)"/>
<path d="M0 0 C1.65 0 3.3 0 5 0 C5 0.33 5 0.66 5 1 C3.35 1 1.7 1 0 1 C0 0.67 0 0.34 0 0 Z " fill="#434039" transform="translate(590,675)"/>
<path d="M0 0 C1.65 0 3.3 0 5 0 C5 0.33 5 0.66 5 1 C3.35 1 1.7 1 0 1 C0 0.67 0 0.34 0 0 Z " fill="#433F39" transform="translate(334,675)"/>
<path d="M0 0 C0.66 0.33 1.32 0.66 2 1 C1.67 1.66 1.34 2.32 1 3 C0.34 2.34 -0.32 1.68 -1 1 C-0.67 0.67 -0.34 0.34 0 0 Z " fill="#3B3932" transform="translate(297,321)"/>
<path d="M0 0 C4 1 4 1 4 1 Z " fill="#453F38" transform="translate(580,892)"/>
<path d="M0 0 C1 4 1 4 1 4 Z " fill="#413D35" transform="translate(241,874)"/>
<path d="M0 0 C0.99 1.485 0.99 1.485 2 3 C1.34 3 0.68 3 0 3 C0 2.01 0 1.02 0 0 Z " fill="#45423B" transform="translate(656,849)"/>
<path d="M0 0 C1 4 1 4 1 4 Z " fill="#433F36" transform="translate(241,810)"/>
<path d="M0 0 C0.66 0 1.32 0 2 0 C1.67 0.99 1.34 1.98 1 3 C0.67 2.01 0.34 1.02 0 0 Z " fill="#444038" transform="translate(240,786)"/>
<path d="M0 0 C1 4 1 4 1 4 Z " fill="#444137" transform="translate(241,778)"/>
<path d="M0 0 C0.99 0.495 0.99 0.495 2 1 C1.67 1.66 1.34 2.32 1 3 C0.67 2.01 0.34 1.02 0 0 Z " fill="#3F3B33" transform="translate(738,762)"/>
<path d="M0 0 C1 4 1 4 1 4 Z " fill="#454238" transform="translate(241,746)"/>
<path d="M0 0 C4 1 4 1 4 1 Z " fill="#45413B" transform="translate(579,720)"/>
<path d="M0 0 C4 1 4 1 4 1 Z " fill="#444039" transform="translate(398,675)"/>
<path d="M0 0 C0.33 0.66 0.66 1.32 1 2 C0.34 1.67 -0.32 1.34 -1 1 C-0.67 0.67 -0.34 0.34 0 0 Z " fill="#3D3A34" transform="translate(321,766)"/>
<path d="" fill="#454036" transform="translate(0,0)"/>
<path d="M0 0 C3 1 3 1 3 1 Z " fill="#45413A" transform="translate(534,675)"/>
<path d="M0 0 C3 1 3 1 3 1 Z " fill="#44403A" transform="translate(516,675)"/>
<path d="M0 0 C3 1 3 1 3 1 Z " fill="#44413A" transform="translate(416,675)"/>
<path d="M0 0 C3 1 3 1 3 1 Z " fill="#444039" transform="translate(392,675)"/>
<path d="M0 0 C3 1 3 1 3 1 Z " fill="#434038" transform="translate(328,675)"/>
<path d="M0 0 C3 1 3 1 3 1 Z " fill="#3A3833" transform="translate(304,335)"/>
<path d="M0 0 C2 1 2 1 2 1 Z " fill="#454137" transform="translate(590,891)"/>
<path d="M0 0 C2 1 2 1 2 1 Z " fill="#3A362E" transform="translate(272,887)"/>
<path d="M0 0 C2 1 2 1 2 1 Z " fill="#433F36" transform="translate(240,882)"/>
<path d="" fill="#413D35" transform="translate(0,0)"/>
<path d="" fill="#403D35" transform="translate(0,0)"/>
<path d="M0 0 C2 1 2 1 2 1 Z " fill="#444039" transform="translate(520,867)"/>
<path d="" fill="#403C36" transform="translate(0,0)"/>
<path d="" fill="#434036" transform="translate(0,0)"/>
<path d="" fill="#423F37" transform="translate(0,0)"/>
<path d="M0 0 C2 1 2 1 2 1 Z " fill="#3F3D35" transform="translate(697,828)"/>
<path d="" fill="#433F37" transform="translate(0,0)"/>
<path d="" fill="#45423A" transform="translate(0,0)"/>
<path d="" fill="#423E36" transform="translate(0,0)"/>
<path d="" fill="#434137" transform="translate(0,0)"/>
<path d="" fill="#444037" transform="translate(0,0)"/>
<path d="" fill="#403C35" transform="translate(0,0)"/>
<path d="" fill="#423F36" transform="translate(0,0)"/>
<path d="M0 0 C2 1 2 1 2 1 Z " fill="#403E36" transform="translate(589,756)"/>
<path d="" fill="#46443C" transform="translate(0,0)"/>
<path d="" fill="#444038" transform="translate(0,0)"/>
<path d="M0 0 C2 1 2 1 2 1 Z " fill="#46433D" transform="translate(568,720)"/>
<path d="M0 0 C2 1 2 1 2 1 Z " fill="#46443B" transform="translate(681,675)"/>
<path d="M0 0 C2 1 2 1 2 1 Z " fill="#44403A" transform="translate(630,675)"/>
<path d="M0 0 C2 1 2 1 2 1 Z " fill="#44413B" transform="translate(601,675)"/>
<path d="M0 0 C2 1 2 1 2 1 Z " fill="#43403A" transform="translate(561,675)"/>
<path d="M0 0 C2 1 2 1 2 1 Z " fill="#434039" transform="translate(431,675)"/>
<path d="M0 0 C2 1 2 1 2 1 Z " fill="#434139" transform="translate(422,675)"/>
<path d="M0 0 C2 1 2 1 2 1 Z " fill="#45413A" transform="translate(320,675)"/>
<path d="M0 0 C2 1 2 1 2 1 Z " fill="#46423A" transform="translate(304,675)"/>
<path d="" fill="#373530" transform="translate(0,0)"/>
<path d="M0 0 C2 1 2 1 2 1 Z " fill="#3E3F38" transform="translate(370,449)"/>
<path d="" fill="#363431" transform="translate(0,0)"/>
<path d="" fill="#363530" transform="translate(0,0)"/>
<path d="" fill="#3B3B33" transform="translate(0,0)"/>
<path d="" fill="#3D3B36" transform="translate(0,0)"/>
<path d="" fill="#393732" transform="translate(0,0)"/>
<path d="" fill="#3B3934" transform="translate(0,0)"/>
<path d="" fill="#3D3C35" transform="translate(0,0)"/>
<path d="" fill="#3E3B35" transform="translate(0,0)"/>
<path d="" fill="#413F37" transform="translate(0,0)"/>
<path d="M0 0 C2 1 2 1 2 1 Z " fill="#3E3B34" transform="translate(547,192)"/>
<path d="" fill="#454238" transform="translate(0,0)"/>
<path d="" fill="#2C281B" transform="translate(0,0)"/>
<path d="" fill="#3C372A" transform="translate(0,0)"/>
<path d="" fill="#444038" transform="translate(0,0)"/>
<path d="" fill="#454037" transform="translate(0,0)"/>
<path d="" fill="#433F37" transform="translate(0,0)"/>
<path d="" fill="#434038" transform="translate(0,0)"/>
<path d="" fill="#46423C" transform="translate(0,0)"/>
<path d="" fill="#3F3B35" transform="translate(0,0)"/>
<path d="" fill="#413D37" transform="translate(0,0)"/>
<path d="" fill="#413D36" transform="translate(0,0)"/>
<path d="" fill="#46423A" transform="translate(0,0)"/>
<path d="" fill="#44403A" transform="translate(0,0)"/>
<path d="" fill="#443F37" transform="translate(0,0)"/>
<path d="" fill="#444039" transform="translate(0,0)"/>
<path d="" fill="#423F37" transform="translate(0,0)"/>
<path d="" fill="#443F38" transform="translate(0,0)"/>
<path d="" fill="#3D3B32" transform="translate(0,0)"/>
<path d="" fill="#424038" transform="translate(0,0)"/>
<path d="" fill="#443F38" transform="translate(0,0)"/>
<path d="" fill="#423D36" transform="translate(0,0)"/>
<path d="" fill="#3E3B32" transform="translate(0,0)"/>
<path d="" fill="#433D35" transform="translate(0,0)"/>
<path d="" fill="#3C3832" transform="translate(0,0)"/>
<path d="" fill="#434039" transform="translate(0,0)"/>
<path d="" fill="#43423A" transform="translate(0,0)"/>
<path d="" fill="#434138" transform="translate(0,0)"/>
<path d="" fill="#403C38" transform="translate(0,0)"/>
<path d="" fill="#403B34" transform="translate(0,0)"/>
<path d="" fill="#46433B" transform="translate(0,0)"/>
<path d="" fill="#433E37" transform="translate(0,0)"/>
<path d="" fill="#413D37" transform="translate(0,0)"/>
<path d="" fill="#413C35" transform="translate(0,0)"/>
<path d="" fill="#454139" transform="translate(0,0)"/>
<path d="" fill="#454138" transform="translate(0,0)"/>
<path d="" fill="#3E3C35" transform="translate(0,0)"/>
<path d="" fill="#444239" transform="translate(0,0)"/>
<path d="" fill="#46413A" transform="translate(0,0)"/>
<path d="" fill="#424035" transform="translate(0,0)"/>
<path d="" fill="#3D3B33" transform="translate(0,0)"/>
<path d="" fill="#423F39" transform="translate(0,0)"/>
<path d="" fill="#444138" transform="translate(0,0)"/>
<path d="" fill="#444039" transform="translate(0,0)"/>
<path d="" fill="#444038" transform="translate(0,0)"/>
<path d="" fill="#433F39" transform="translate(0,0)"/>
<path d="" fill="#443F38" transform="translate(0,0)"/>
<path d="" fill="#413F38" transform="translate(0,0)"/>
<path d="" fill="#403D38" transform="translate(0,0)"/>
<path d="" fill="#453F3A" transform="translate(0,0)"/>
<path d="" fill="#3D3A35" transform="translate(0,0)"/>
<path d="" fill="#433F36" transform="translate(0,0)"/>
<path d="" fill="#433F38" transform="translate(0,0)"/>
<path d="" fill="#403B35" transform="translate(0,0)"/>
<path d="" fill="#444239" transform="translate(0,0)"/>
<path d="" fill="#423E36" transform="translate(0,0)"/>
<path d="" fill="#403D36" transform="translate(0,0)"/>
<path d="" fill="#413D36" transform="translate(0,0)"/>
<path d="" fill="#434039" transform="translate(0,0)"/>
<path d="" fill="#434038" transform="translate(0,0)"/>
<path d="" fill="#403D35" transform="translate(0,0)"/>
<path d="" fill="#433F36" transform="translate(0,0)"/>
<path d="" fill="#47433B" transform="translate(0,0)"/>
<path d="" fill="#44423B" transform="translate(0,0)"/>
<path d="" fill="#3E3D36" transform="translate(0,0)"/>
<path d="" fill="#413E3A" transform="translate(0,0)"/>
<path d="" fill="#48453E" transform="translate(0,0)"/>
<path d="" fill="#433F3A" transform="translate(0,0)"/>
<path d="" fill="#413E35" transform="translate(0,0)"/>
<path d="" fill="#424035" transform="translate(0,0)"/>
<path d="" fill="#403C36" transform="translate(0,0)"/>
<path d="" fill="#47433A" transform="translate(0,0)"/>
<path d="" fill="#424037" transform="translate(0,0)"/>
<path d="" fill="#434139" transform="translate(0,0)"/>
<path d="" fill="#403D34" transform="translate(0,0)"/>
<path d="" fill="#47433A" transform="translate(0,0)"/>
<path d="" fill="#454239" transform="translate(0,0)"/>
<path d="" fill="#3F3D36" transform="translate(0,0)"/>
<path d="" fill="#3F3C36" transform="translate(0,0)"/>
<path d="" fill="#413C35" transform="translate(0,0)"/>
<path d="" fill="#3F3C36" transform="translate(0,0)"/>
<path d="" fill="#46433C" transform="translate(0,0)"/>
<path d="" fill="#423E39" transform="translate(0,0)"/>
<path d="" fill="#46433C" transform="translate(0,0)"/>
<path d="" fill="#413F38" transform="translate(0,0)"/>
<path d="" fill="#403E37" transform="translate(0,0)"/>
<path d="" fill="#424038" transform="translate(0,0)"/>
<path d="" fill="#3F3D36" transform="translate(0,0)"/>
<path d="" fill="#3E3E37" transform="translate(0,0)"/>
<path d="" fill="#46433A" transform="translate(0,0)"/>
<path d="" fill="#403F37" transform="translate(0,0)"/>
<path d="" fill="#403F37" transform="translate(0,0)"/>
<path d="" fill="#403E36" transform="translate(0,0)"/>
<path d="" fill="#403B37" transform="translate(0,0)"/>
<path d="" fill="#423E37" transform="translate(0,0)"/>
<path d="" fill="#443F38" transform="translate(0,0)"/>
<path d="" fill="#413F35" transform="translate(0,0)"/>
<path d="" fill="#423E36" transform="translate(0,0)"/>
<path d="" fill="#403E36" transform="translate(0,0)"/>
<path d="" fill="#403C37" transform="translate(0,0)"/>
<path d="" fill="#3F3D38" transform="translate(0,0)"/>
<path d="" fill="#46433C" transform="translate(0,0)"/>
<path d="" fill="#403D36" transform="translate(0,0)"/>
<path d="" fill="#3C3A35" transform="translate(0,0)"/>
<path d="" fill="#3F3C35" transform="translate(0,0)"/>
<path d="" fill="#3D3B32" transform="translate(0,0)"/>
<path d="" fill="#3D3934" transform="translate(0,0)"/>
<path d="" fill="#403D35" transform="translate(0,0)"/>
<path d="" fill="#3F3A35" transform="translate(0,0)"/>
<path d="" fill="#423F36" transform="translate(0,0)"/>
<path d="" fill="#424138" transform="translate(0,0)"/>
<path d="" fill="#413D36" transform="translate(0,0)"/>
<path d="" fill="#413D37" transform="translate(0,0)"/>
<path d="" fill="#413E38" transform="translate(0,0)"/>
<path d="" fill="#454137" transform="translate(0,0)"/>
<path d="" fill="#46443D" transform="translate(0,0)"/>
<path d="" fill="#43403B" transform="translate(0,0)"/>
<path d="" fill="#464238" transform="translate(0,0)"/>
<path d="" fill="#413E3A" transform="translate(0,0)"/>
<path d="" fill="#413D3A" transform="translate(0,0)"/>
<path d="" fill="#424039" transform="translate(0,0)"/>
<path d="" fill="#413F38" transform="translate(0,0)"/>
<path d="" fill="#48443B" transform="translate(0,0)"/>
<path d="" fill="#484237" transform="translate(0,0)"/>
<path d="" fill="#434037" transform="translate(0,0)"/>
<path d="" fill="#47463D" transform="translate(0,0)"/>
<path d="" fill="#454239" transform="translate(0,0)"/>
<path d="" fill="#47453B" transform="translate(0,0)"/>
<path d="" fill="#49453B" transform="translate(0,0)"/>
<path d="" fill="#46413B" transform="translate(0,0)"/>
<path d="" fill="#43413A" transform="translate(0,0)"/>
<path d="" fill="#46413C" transform="translate(0,0)"/>
<path d="" fill="#43403A" transform="translate(0,0)"/>
<path d="" fill="#46443D" transform="translate(0,0)"/>
<path d="" fill="#44413C" transform="translate(0,0)"/>
<path d="" fill="#46433C" transform="translate(0,0)"/>
<path d="" fill="#49453C" transform="translate(0,0)"/>
<path d="" fill="#47453C" transform="translate(0,0)"/>
<path d="" fill="#4A453D" transform="translate(0,0)"/>
<path d="" fill="#46423B" transform="translate(0,0)"/>
<path d="" fill="#454039" transform="translate(0,0)"/>
<path d="" fill="#44433A" transform="translate(0,0)"/>
<path d="" fill="#45423B" transform="translate(0,0)"/>
<path d="" fill="#48443B" transform="translate(0,0)"/>
<path d="" fill="#45423A" transform="translate(0,0)"/>
<path d="" fill="#46413A" transform="translate(0,0)"/>
<path d="" fill="#47423B" transform="translate(0,0)"/>
<path d="" fill="#45403A" transform="translate(0,0)"/>
<path d="" fill="#43403A" transform="translate(0,0)"/>
<path d="" fill="#44403B" transform="translate(0,0)"/>
<path d="" fill="#434139" transform="translate(0,0)"/>
<path d="" fill="#44403A" transform="translate(0,0)"/>
<path d="" fill="#443F3A" transform="translate(0,0)"/>
<path d="" fill="#434039" transform="translate(0,0)"/>
<path d="" fill="#454039" transform="translate(0,0)"/>
<path d="" fill="#44413A" transform="translate(0,0)"/>
<path d="" fill="#46433B" transform="translate(0,0)"/>
<path d="" fill="#454339" transform="translate(0,0)"/>
<path d="" fill="#46413A" transform="translate(0,0)"/>
<path d="" fill="#48433C" transform="translate(0,0)"/>
<path d="" fill="#45423C" transform="translate(0,0)"/>
<path d="" fill="#45403A" transform="translate(0,0)"/>
<path d="" fill="#47433A" transform="translate(0,0)"/>
<path d="" fill="#44413A" transform="translate(0,0)"/>
<path d="" fill="#444139" transform="translate(0,0)"/>
<path d="" fill="#45423A" transform="translate(0,0)"/>
<path d="" fill="#434038" transform="translate(0,0)"/>
<path d="" fill="#43413A" transform="translate(0,0)"/>
<path d="" fill="#454139" transform="translate(0,0)"/>
<path d="" fill="#433E3A" transform="translate(0,0)"/>
<path d="" fill="#423F39" transform="translate(0,0)"/>
<path d="" fill="#43403A" transform="translate(0,0)"/>
<path d="" fill="#45413A" transform="translate(0,0)"/>
<path d="" fill="#444039" transform="translate(0,0)"/>
<path d="" fill="#434039" transform="translate(0,0)"/>
<path d="" fill="#454039" transform="translate(0,0)"/>
<path d="" fill="#46413A" transform="translate(0,0)"/>
<path d="" fill="#47423C" transform="translate(0,0)"/>
<path d="" fill="#46413A" transform="translate(0,0)"/>
<path d="" fill="#484038" transform="translate(0,0)"/>
<path d="" fill="#454339" transform="translate(0,0)"/>
<path d="" fill="#48433C" transform="translate(0,0)"/>
<path d="" fill="#444137" transform="translate(0,0)"/>
<path d="" fill="#424036" transform="translate(0,0)"/>
<path d="" fill="#46453B" transform="translate(0,0)"/>
<path d="" fill="#3F3D35" transform="translate(0,0)"/>
<path d="" fill="#413E39" transform="translate(0,0)"/>
<path d="" fill="#3A3832" transform="translate(0,0)"/>
<path d="" fill="#3D3934" transform="translate(0,0)"/>
<path d="" fill="#373531" transform="translate(0,0)"/>
<path d="" fill="#393630" transform="translate(0,0)"/>
<path d="" fill="#383530" transform="translate(0,0)"/>
<path d="" fill="#3D3B34" transform="translate(0,0)"/>
<path d="" fill="#363531" transform="translate(0,0)"/>
<path d="" fill="#39372F" transform="translate(0,0)"/>
<path d="" fill="#3B3834" transform="translate(0,0)"/>
<path d="" fill="#3A3831" transform="translate(0,0)"/>
<path d="" fill="#3B3932" transform="translate(0,0)"/>
<path d="" fill="#3A3635" transform="translate(0,0)"/>
<path d="" fill="#3A3630" transform="translate(0,0)"/>
<path d="" fill="#3B3A31" transform="translate(0,0)"/>
<path d="" fill="#373732" transform="translate(0,0)"/>
<path d="" fill="#3B3833" transform="translate(0,0)"/>
<path d="" fill="#393831" transform="translate(0,0)"/>
<path d="" fill="#3A3732" transform="translate(0,0)"/>
<path d="" fill="#383732" transform="translate(0,0)"/>
<path d="" fill="#373632" transform="translate(0,0)"/>
<path d="" fill="#393732" transform="translate(0,0)"/>
<path d="" fill="#3A3835" transform="translate(0,0)"/>
<path d="" fill="#3C3933" transform="translate(0,0)"/>
<path d="" fill="#3B3933" transform="translate(0,0)"/>
<path d="" fill="#3B3933" transform="translate(0,0)"/>
<path d="" fill="#3B3933" transform="translate(0,0)"/>
<path d="" fill="#393531" transform="translate(0,0)"/>
<path d="" fill="#37362F" transform="translate(0,0)"/>
<path d="" fill="#383531" transform="translate(0,0)"/>
<path d="" fill="#3E3C34" transform="translate(0,0)"/>
<path d="" fill="#3B3A35" transform="translate(0,0)"/>
<path d="" fill="#3E3D36" transform="translate(0,0)"/>
<path d="" fill="#46423A" transform="translate(0,0)"/>
<path d="" fill="#454239" transform="translate(0,0)"/>
<path d="" fill="#404238" transform="translate(0,0)"/>
<path d="" fill="#424238" transform="translate(0,0)"/>
<path d="" fill="#41423A" transform="translate(0,0)"/>
<path d="" fill="#3C3932" transform="translate(0,0)"/>
<path d="" fill="#393734" transform="translate(0,0)"/>
<path d="" fill="#3B3835" transform="translate(0,0)"/>
<path d="" fill="#393930" transform="translate(0,0)"/>
<path d="" fill="#393730" transform="translate(0,0)"/>
<path d="" fill="#3B3A33" transform="translate(0,0)"/>
<path d="" fill="#393A33" transform="translate(0,0)"/>
<path d="" fill="#3C3B35" transform="translate(0,0)"/>
<path d="" fill="#3A3A33" transform="translate(0,0)"/>
<path d="" fill="#3D3934" transform="translate(0,0)"/>
<path d="" fill="#3C3A34" transform="translate(0,0)"/>
<path d="" fill="#262116" transform="translate(0,0)"/>
<path d="" fill="#383531" transform="translate(0,0)"/>
<path d="" fill="#3B3A32" transform="translate(0,0)"/>
<path d="" fill="#3B3834" transform="translate(0,0)"/>
<path d="" fill="#413D32" transform="translate(0,0)"/>
<path d="" fill="#3B3633" transform="translate(0,0)"/>
<path d="" fill="#3B3833" transform="translate(0,0)"/>
<path d="" fill="#3B3733" transform="translate(0,0)"/>
<path d="" fill="#393732" transform="translate(0,0)"/>
<path d="" fill="#3C3B39" transform="translate(0,0)"/>
<path d="" fill="#3D3B35" transform="translate(0,0)"/>
<path d="" fill="#3A3933" transform="translate(0,0)"/>
<path d="" fill="#3A3932" transform="translate(0,0)"/>
<path d="" fill="#393A33" transform="translate(0,0)"/>
<path d="" fill="#3E3C38" transform="translate(0,0)"/>
<path d="" fill="#3C3C34" transform="translate(0,0)"/>
<path d="" fill="#3E3D35" transform="translate(0,0)"/>
<path d="" fill="#3B3A32" transform="translate(0,0)"/>
<path d="" fill="#433F38" transform="translate(0,0)"/>
<path d="" fill="#3D3934" transform="translate(0,0)"/>
<path d="" fill="#3F3C33" transform="translate(0,0)"/>
<path d="" fill="#3C3A35" transform="translate(0,0)"/>
<path d="" fill="#3D3935" transform="translate(0,0)"/>
<path d="" fill="#3F3F39" transform="translate(0,0)"/>
<path d="" fill="#3F3C36" transform="translate(0,0)"/>
<path d="" fill="#403D38" transform="translate(0,0)"/>
<path d="" fill="#3C3A33" transform="translate(0,0)"/>
<path d="" fill="#3C3B36" transform="translate(0,0)"/>
<path d="" fill="#3F3D33" transform="translate(0,0)"/>
<path d="" fill="#353532" transform="translate(0,0)"/>
<path d="" fill="#3E3D37" transform="translate(0,0)"/>
<path d="" fill="#3F3F36" transform="translate(0,0)"/>
<path d="" fill="#413D35" transform="translate(0,0)"/>
<path d="" fill="#3B3C33" transform="translate(0,0)"/>
<path d="" fill="#3B3932" transform="translate(0,0)"/>
<path d="" fill="#3C3834" transform="translate(0,0)"/>
<path d="" fill="#3E3A32" transform="translate(0,0)"/>
<path d="" fill="#3E3D34" transform="translate(0,0)"/>
<path d="" fill="#434139" transform="translate(0,0)"/>
<path d="" fill="#3F3E35" transform="translate(0,0)"/>
<path d="" fill="#45423A" transform="translate(0,0)"/>
<path d="" fill="#413E36" transform="translate(0,0)"/>
<path d="" fill="#413D37" transform="translate(0,0)"/>
<path d="" fill="#414137" transform="translate(0,0)"/>
<path d="" fill="#434038" transform="translate(0,0)"/>
<path d="" fill="#474338" transform="translate(0,0)"/>
<path d="" fill="#453F39" transform="translate(0,0)"/>
<path d="" fill="#474339" transform="translate(0,0)"/>
<path d="" fill="#4A453B" transform="translate(0,0)"/>
<path d="" fill="#322C1F" transform="translate(0,0)"/>
<path d="" fill="#444237" transform="translate(0,0)"/>
<path d="" fill="#444338" transform="translate(0,0)"/>
<path d="" fill="#48453D" transform="translate(0,0)"/>
<path d="" fill="#444137" transform="translate(0,0)"/>
<path d="" fill="#433F35" transform="translate(0,0)"/>
</svg>
